<svg xmlns="http://www.w3.org/2000/svg" xmlns:xlink="http://www.w3.org/1999/xlink" xmlns:inkscape="http://www.inkscape.org/namespaces/inkscape" version="1.1" width="456" height="203" viewBox="0 0 456 203">
<defs>
<path id="font_1_57" d="M.43798829 .16992188V.1959076H.33599855V.64694216C.33599855 .66793826 .33499146 .6689453 .31698609 .6689453L.019989014 .1959076V.16992188H.27799989V.07196045C.27799989 .035980226 .27598573 .025985718 .20599365 .025985718H.18699646V0C.21899414 .0019989014 .272995 .0019989014 .30699159 .0019989014 .34098817 .0019989014 .394989 .0019989014 .4269867 0V.025985718H.4079895C.33799745 .025985718 .33599855 .035980226 .33599855 .07196045V.16992188H.43798829M.2809906 .1959076H.039993287L.2809906 .5809326V.1959076Z"/>
<path id="font_1_43" d="M.38398744 .11817932C.38398744 .122177127 .3829956 .1251831 .37599183 .1251831 .36898805 .1251831 .36799623 .124176029 .3639984 .11117554 .33799745 .030181885 .2809906 .010177612 .23799134 .010177612 .17399597 .010177612 .09700012 .06918335 .09700012 .21717835 .09700012 .36930848 .17098999 .42437745 .22999573 .42437745 .2689972 .42437745 .32699586 .40534974 .34899903 .35029603 .32998658 .35029603 .3019867 .35029603 .3019867 .31529237 .3019867 .28729249 .32499696 .27929688 .33799745 .27929688 .34498597 .27931214 .37399293 .28230287 .37399293 .31732179 .37399293 .3883667 .30599977 .4423828 .22898865 .4423828 .12298584 .4423828 .032989503 .3443451 .032989503 .21627808 .032989503 .083221439 .1269989-.0078125 .22898865-.0078125 .35299684-.0078125 .38398744 .10722351 .38398744 .1182251V.11817932Z"/>
<path id="font_1_75" d="M.74398806 0V.025985718C.6799927 .025985718 .6759949 .02999878 .6759949 .06904602V.3043213C.6759949 .35438539 .6669922 .43847657 .5479889 .43847657 .47999574 .43847657 .43299867 .3924408 .4149933 .33836366H.4139862C.4019928 .4204712 .34298707 .43847657 .2869873 .43847657 .20799256 .43847657 .16699219 .3774109 .1519928 .33737184H.15098572V.43847657L.032989503 .4273529V.4013672C.09199524 .4013672 .100997928 .39535523 .100997928 .3473053V.06903076C.100997928 .0309906 .09700012 .025985718 .032989503 .025985718V0C.056991579 .0019989014 .100997928 .0019989014 .1269989 .0019989014 .15299988 .0019989014 .19799805 .0019989014 .22200012 0V.025985718C.1579895 .025985718 .1539917 .02999878 .1539917 .06903076V.26123048C.1539917 .35339356 .20999146 .4224701 .27999879 .4224701 .35398866 .4224701 .3619995 .35638429 .3619995 .30833436V.06904602C.3619995 .03100586 .35798646 .025985718 .2939911 .025985718V0C.31799317 .0019989014 .3619995 .0019989014 .3880005 .0019989014 .4139862 .0019989014 .45899964 .0019989014 .48298646 0V.025985718C.4189911 .025985718 .4149933 .02999878 .4149933 .06904602V.26127626C.4149933 .35339356 .47099305 .4224701 .54100039 .4224701 .61499026 .4224701 .6230011 .35638429 .6230011 .30833436V.06904602C.6230011 .03100586 .61898806 .025985718 .5549927 .025985718V0C.57899478 .0019989014 .6230011 .0019989014 .6489868 .0019989014 .6749878 .0019989014 .7200012 .0019989014 .74398806 0Z"/>
<path id="font_1_82" d="M.38398744 0V.025985718H.35398866C.2679901 .025985718 .2659912 .037002565 .2659912 .073013309V.6391907C.2659912 .66012576 .2649994 .6611328 .25099183 .6611328 .21199036 .6142578 .15299988 .5993042 .09700012 .5973053 .09399414 .5973053 .08898926 .5973053 .08799744 .5953064 .08699036 .5933075 .08699036 .5913086 .08699036 .5703125 .117996219 .5703125 .16999817 .5763092 .20999146 .600296V.073013309C.20999146 .037994386 .20799256 .025985718 .12199402 .025985718H.09199524V0L.23799134 .0019989014 .38398744 0Z"/>
<path id="font_1_56" d="M.4169922 .20240784C.4169922 .32240296 .33898927 .41540528 .24198914 .41540528 .19099427 .41540528 .147995 .39640809 .11399841 .3604126V.58535769C.12399292 .5813446 .16499329 .5683594 .20698548 .5683594 .2999878 .5683594 .35099793 .61834719 .37998963 .64723208 .37998963 .6551819 .37998963 .66015627 .37399293 .66015627 .37399293 .66015627 .37098695 .66015627 .36299134 .6561737 .32798768 .64126589 .2869873 .62934878 .23699951 .62934878 .20698548 .62927249 .1619873 .63327029 .11299133 .65527346 .101989749 .66015627 .09899902 .66015627 .09899902 .66015627 .09399414 .66026309 .09298706 .65927127 .09298706 .63926699V.3493805C.09298706 .33137513 .09298706 .3263855 .102996829 .3263855 .10798645 .3263855 .10998535 .3283844 .114990238 .33538819 .14698792 .3804016 .19099427 .39941407 .24099732 .39941407 .27598573 .39941407 .35099793 .37739564 .35099793 .20632935 .35099793 .1743164 .35099793 .11630249 .32099916 .0703125 .29599 .029342652 .25698854 .008361816 .21398926 .008361816 .147995 .008361816 .08099365 .05432129 .06298828 .13130188 .066986087 .13009644 .07499695 .12809754 .07899475 .12809754 .09199524 .12809754 .116989139 .13510132 .116989139 .16609192 .116989139 .19309998 .09799194 .20410156 .07899475 .20410156 .055999757 .20410156 .040985109 .190094 .040985109 .16209412 .040985109 .07521057 .10998535-.015625 .21598816-.015625 .31900025-.015625 .4169922 .07322693 .4169922 .2020874V.20240784Z"/>
<path id="font_1_106" d="M.4249878 .17337036C.4249878 .27037049 .34498597 .34036256 .25 .35136415 .32598878 .3673706 .39898683 .43536378 .39898683 .5263672 .39898683 .6042328 .31999208 .6611328 .22999573 .6611328 .13899231 .6611328 .05899048 .6052246 .05899048 .5253601 .05899048 .4903717 .084991458 .484375 .09799194 .484375 .11898804 .484375 .13699341 .49736024 .13699341 .5233612 .13699341 .5493622 .11898804 .5623627 .09799194 .5623627 .09399414 .5625458 .08898926 .5625458 .084991458 .5605469 .11399841 .62654116 .19299317 .63853457 .22799683 .63853457 .2630005 .63853457 .32899476 .62153628 .32899476 .5255127 .32899476 .4974823 .32499696 .44744874 .29100038 .40341188 .26098634 .36436463 .22698975 .36236573 .19400025 .359375 .18899536 .359375 .1659851 .35736085 .1619873 .35736085 .15499878 .35598756 .15098572 .35499574 .15098572 .34799195 .15098572 .34136964 .1519928 .34036256 .17199707 .34036256H.22099304C.30999757 .34036256 .34899903 .2633667 .34899903 .17434693 .34899903 .054367067 .2849884 .008361816 .22698975 .008361816 .17399597 .008361816 .08799744 .034362794 .06098938 .11135864 .06599426 .10934448 .070999149 .10934448 .07598877 .10934448 .099990848 .10935974 .117996219 .12536621 .117996219 .15136719 .117996219 .18035889 .09599304 .19335938 .07598877 .19335938 .05899048 .19335938 .032989503 .18534851 .032989503 .1483612 .032989503 .056365968 .12298584-.015625 .22898865-.015625 .33999635-.015625 .4249878 .07136536 .4249878 .1733551V.17337036Z"/>
<path id="font_1_100" d="M.45098878 .62290957V.6449127H.21598816C.09899902 .6449127 .09700012 .6578369 .09298706 .6767578H.07499695L.04598999 .48999024H.06399536C.066986087 .50897219 .07398987 .5599365 .085998538 .57891848 .09199524 .58691409 .1659851 .58691409 .18299866 .58691409H.40299989L.2919922 .42204286C.21798706 .3111267 .16699219 .16123963 .16699219 .030334473 .16699219 .018341065 .16699219-.015625 .20298767-.015625 .23899842-.015625 .23899842 .018341065 .23899842 .031326295V.077301029C.23899842 .24116516 .2669983 .34909059 .31298829 .41804505L.45098878 .62290957Z"/>
</defs>
<path transform="matrix(1.00005,0,0,-1.00005,19.58023,200.63222)" d="M28.3468 0V113.38724H106.30052L212.60106 198.42766 318.9016 113.38724H340.1617 396.85533V0H28.3468" fill="#ffffff"/>
<path transform="matrix(1.00005,0,0,-1.00005,19.58023,200.63222)" stroke-width="1.19553" stroke-linecap="butt" stroke-miterlimit="10" stroke-linejoin="miter" fill="none" stroke="#000000" d="M28.3468 0V113.38724H106.30052L212.60106 198.42766 318.9016 113.38724H340.1617 396.85533V0H28.3468"/>
<path transform="matrix(1.00005,0,0,-1.00005,19.58023,200.63222)" stroke-width="1.19553" stroke-linecap="butt" stroke-miterlimit="10" stroke-linejoin="miter" fill="none" stroke="#000000" d="M14.17339 56.69362H42.5202"/>
<path transform="matrix(1.00005,0,0,-1.00005,19.58023,200.63222)" stroke-width="1.19553" stroke-linecap="butt" stroke-miterlimit="10" stroke-linejoin="miter" fill="none" stroke="#000000" d="M382.68193 56.69362H411.02873"/>
<path transform="matrix(1.00005,0,0,-1.00005,19.58023,200.63222)" stroke-width="1.19553" stroke-linecap="butt" stroke-miterlimit="10" stroke-linejoin="miter" fill="none" stroke="#000000" d="M133.2299 161.5767 161.5767 147.40332"/>
<path transform="matrix(1.00005,0,0,-1.00005,19.58023,200.63222)" stroke-width="1.19553" stroke-linecap="butt" stroke-miterlimit="10" stroke-linejoin="miter" fill="none" stroke="#000000" d="M127.56062 155.90744 155.90744 141.73404"/>
<path transform="matrix(1.00005,0,0,-1.00005,19.58023,200.63222)" stroke-width="1.19553" stroke-linecap="butt" stroke-miterlimit="10" stroke-linejoin="miter" fill="none" stroke="#000000" d="M291.9722 155.90744 263.6254 141.73404"/>
<path transform="matrix(1.00005,0,0,-1.00005,19.58023,200.63222)" stroke-width="1.19553" stroke-linecap="butt" stroke-miterlimit="10" stroke-linejoin="miter" fill="none" stroke="#000000" d="M297.6415 150.23816 269.29469 136.06476"/>
<path transform="matrix(1.00005,0,0,-1.00005,19.58023,200.63222)" stroke-width="1.19553" stroke-linecap="butt" stroke-miterlimit="10" stroke-linejoin="miter" fill="none" stroke="#000000" d="M382.68193 56.69362H411.02873"/>
<path transform="matrix(1.00005,0,0,-1.00005,19.58023,200.63222)" d="M106.30052 113.38724H318.9016"/>
<path transform="matrix(1.00005,0,0,-1.00005,19.58023,200.63222)" stroke-width="1.19553" stroke-linecap="butt" stroke-dasharray="2.98883,2.98883" stroke-miterlimit="10" stroke-linejoin="miter" fill="none" stroke="#000000" d="M106.30052 113.38724H318.9016"/>
<use data-text="4" xlink:href="#font_1_57" transform="matrix(24.788338,0,0,-24.788338,1.2173157,146.45851)"/>
<use data-text="c" xlink:href="#font_1_43" transform="matrix(24.788338,0,0,-24.788338,20.081238,146.45851)"/>
<use data-text="m" xlink:href="#font_1_75" transform="matrix(24.788338,0,0,-24.788338,30.14531,146.45851)"/>
<use data-text="1" xlink:href="#font_1_82" transform="matrix(24.788338,0,0,-24.788338,188.29665,194.45291)"/>
<use data-text="5" xlink:href="#font_1_56" transform="matrix(24.788338,0,0,-24.788338,199.6745,194.45291)"/>
<use data-text="c" xlink:href="#font_1_43" transform="matrix(24.788338,0,0,-24.788338,218.53842,194.45291)"/>
<use data-text="m" xlink:href="#font_1_75" transform="matrix(24.788338,0,0,-24.788338,228.6025,194.45291)"/>
<use data-text="4" xlink:href="#font_1_57" transform="matrix(24.788338,0,0,-24.788338,415.102,137.95409)"/>
<use data-text="c" xlink:href="#font_1_43" transform="matrix(24.788338,0,0,-24.788338,433.9659,137.95409)"/>
<use data-text="m" xlink:href="#font_1_75" transform="matrix(24.788338,0,0,-24.788338,444.02998,137.95409)"/>
<use data-text="3" xlink:href="#font_1_106" transform="matrix(24.788338,0,0,-24.788338,335.726,83.89439)"/>
<use data-text="c" xlink:href="#font_1_43" transform="matrix(24.788338,0,0,-24.788338,354.58995,83.89439)"/>
<use data-text="m" xlink:href="#font_1_75" transform="matrix(24.788338,0,0,-24.788338,364.654,83.89439)"/>
<use data-text="3" xlink:href="#font_1_106" transform="matrix(24.788338,0,0,-24.788338,52.243864,83.89439)"/>
<use data-text="c" xlink:href="#font_1_43" transform="matrix(24.788338,0,0,-24.788338,71.10779,83.89439)"/>
<use data-text="m" xlink:href="#font_1_75" transform="matrix(24.788338,0,0,-24.788338,81.17186,83.89439)"/>
<use data-text="7" xlink:href="#font_1_100" transform="matrix(24.788338,0,0,-24.788338,276.19505,41.570268)"/>
<use data-text="c" xlink:href="#font_1_43" transform="matrix(24.788338,0,0,-24.788338,295.05897,41.570268)"/>
<use data-text="m" xlink:href="#font_1_75" transform="matrix(24.788338,0,0,-24.788338,305.12306,41.570268)"/>
</svg>
