<svg xmlns="http://www.w3.org/2000/svg" xmlns:xlink="http://www.w3.org/1999/xlink" xmlns:inkscape="http://www.inkscape.org/namespaces/inkscape" version="1.1" width="413" height="316" viewBox="0 0 413 316">
<defs>
<path id="font_1_95" d="M.6819916 .08427429C.6819916 .090286258 .6819916 .09727478 .6729889 .09727478 .6649933 .09727478 .6639862 .091278079 .6639862 .08728027 .6589966 .021987915 .6299896 0 .598999 0 .5439911 0 .5379944 .06323242 .5319977 .12428284 .5289917 .14527893 .5269928 .16027832 .5249939 .1822815 .5189972 .23210144 .5109863 .30500794 .3919983 .3409729 .4869995 .3599701 .5669861 .42388917 .5669861 .50379946 .5669861 .59768679 .46099855 .6826172 .32099916 .6826172H.051986696V.6566162C.12098694 .6566162 .13198853 .6566162 .13198853 .6116638V.07128906C.13198853 .025985718 .12098694 .025985718 .051986696 .025985718V0C.08099365 .0019989014 .1329956 .0019989014 .1639862 .0019989014 .19499207 .0019989014 .24699402 .0019989014 .27598573 0V.025985718C.20698548 .025985718 .19599915 .025985718 .19599915 .07128906V.33398438H.31298829C.36999513 .33398438 .4019928 .31100465 .41600038 .2980194 .45599366 .25907899 .45599366 .23210144 .45599366 .16419983 .45599366 .09727478 .45599366 .06323242 .48599244 .029006958 .5239868-.011627197 .57499697-.015625 .5970001-.015625 .67099-.016021729 .6819916 .066970828 .6819916 .083969119V.08427429M.4909973 .50379946C.4909973 .37495423 .3849945 .3499756 .30999757 .3499756H.19599915V.6176605C.19599915 .6516113 .19799805 .6566162 .23799134 .6566162H.31098939C.3939972 .6566162 .4909973 .6276398 .4909973 .50379946Z"/>
<path id="font_1_28" d="M.44898988 .08898926V.14498902H.43099977V.08799744C.43099977 .026992798 .4039917 .018997193 .3909912 .018997193 .34999085 .018997193 .34999085 .070999149 .34999085 .114990238V.25898744C.34999085 .32499696 .34999085 .3600006 .30799867 .39898683 .2709961 .43199159 .22799683 .44198609 .19400025 .44198609 .114990238 .44198609 .057998659 .37998963 .057998659 .31399537 .057998659 .2769928 .08799744 .2749939 .09399414 .2749939 .10699463 .2749939 .12998963 .2829895 .12998963 .31098939 .12998963 .33599855 .11099243 .34700013 .09399414 .34700013 .08999634 .34700013 .084991458 .34599305 .08198547 .34498597 .102996829 .4079895 .15699768 .42599488 .19198609 .42599488 .24198914 .42599488 .29699708 .38198854 .29699708 .2979889V.2539978C.23799134 .2519989 .16699219 .24398804 .11099243 .21398926 .04798889 .1789856 .02999878 .1289978 .02999878 .09098816 .02999878 .01399231 .11999512-.008010864 .17298889-.008010864 .22799683-.008010864 .2789917 .022994996 .30099488 .07998657 .30299378 .035995485 .33099366-.0040130617 .375-.0040130617 .3959961-.0040130617 .44898988 .009994507 .44898988 .08898926M.29699708 .13899231C.29699708 .051986696 .23498535 .0079956059 .17999268 .0079956059 .12998963 .0079956059 .09098816 .04499817 .09098816 .09098816 .09098816 .12098694 .10398865 .17399597 .1619873 .20599365 .20999146 .23298645 .2649994 .23699951 .29699708 .23899842V.13899231Z"/>
<path id="font_1_47" d="M.47898866 0V.025985718C.41999818 .025985718 .41099549 .03201294 .41099549 .080078128V.69433596L.2919922 .6826172V.6566162C.35099793 .6566162 .3600006 .65063479 .3600006 .602829V.36943055C.35598756 .37443543 .31498719 .43847657 .23399353 .43847657 .13198853 .43847657 .032989503 .3474121 .032989503 .21533203 .032989503 .084228519 .12599182-.0078125 .22399903-.0078125 .30899049-.0078125 .35299684 .05821228 .35798646 .065216068V-.0078125L.47898866 0M.35798646 .12007141C.35798646 .09007263 .33999635 .063064578 .31698609 .04307556 .2829895 .013183594 .24899292 .008178711 .22999573 .008178711 .20098877 .008178711 .09700012 .02319336 .09700012 .21432495 .09700012 .41046144 .21299744 .4224701 .23899842 .4224701 .2849884 .4224701 .32199098 .39645387 .34498597 .36042787 .35798646 .3394165 .35798646 .33641053 .35798646 .31840516V.12007141Z"/>
<path id="font_1_66" d="M.21398926 0V.025985718C.15499878 .025985718 .15299988 .03199768 .15299988 .06803894V.43847657L.037994386 .4273529V.4013672C.09399414 .4013672 .101989749 .39535523 .101989749 .3473053V.06903076C.101989749 .0309906 .09799194 .025985718 .033996583 .025985718V0C.057998659 .0019989014 .100997928 .0019989014 .12599182 .0019989014 .1499939 .0019989014 .19099427 .0019989014 .21398926 0M.16499329 .60446169C.16499329 .62846377 .1459961 .64546206 .125 .64546206 .100997928 .64546206 .083999637 .62646487 .083999637 .60446169 .083999637 .58047488 .102996829 .56347659 .12399292 .56347659 .147995 .56347659 .16499329 .58247378 .16499329 .60446169Z"/>
<path id="font_1_109" d="M.48298646 .00018310547V.026184082C.42399598 .026184082 .4149933 .032180787 .4149933 .080215457V.43847657L.2939911 .42747499V.401474C.35299684 .401474 .3619995 .39546205 .3619995 .34742738V.1652832C.3619995 .081222537 .31698609 .008178711 .24299622 .008178711 .16099549 .008178711 .1539917 .0572052 .1539917 .10923767V.43847657L.032989503 .42747499V.401474C.07299805 .401474 .099990848 .401474 .100997928 .36143495V.16929627C.100997928 .10223389 .100997928 .0592041 .1269989 .031188965 .13999939 .018173218 .16499329-.0078125 .23699951-.0078125 .32199098-.0078125 .35499574 .064208988 .36299134 .08522034H.3639984V-.0078125L.48298646 .00018310547Z"/>
<path id="font_1_98" d="M.33299256 .12454224C.33299256 .17553711 .30599977 .20254517 .29299928 .21453858 .2630005 .24554444 .22799683 .25253297 .18598938 .26054383 .1309967 .27253724 .06098938 .2865448 .06098938 .3474884 .06098938 .37345887 .07499695 .42837525 .17599488 .42837525 .2829895 .42837525 .2889862 .32852174 .29100038 .2965393 .2919922 .29153443 .29699708 .2905426 .2999878 .2905426 .30899049 .2905426 .30899049 .29353334 .30899049 .31054688V.42237855C.30899049 .44039918 .30799867 .44140626 .3019867 .44140626 .2979889 .44140626 .29699708 .44039918 .2849884 .42539979 .28199769 .42140199 .272995 .4113922 .269989 .4073944 .23799134 .44137574 .19299317 .4423828 .17599488 .4423828 .06498718 .4423828 .024993897 .38427735 .024993897 .32617188 .024993897 .23616028 .1269989 .21516419 .1559906 .20916748 .21899414 .19616699 .24099732 .19216919 .2619934 .17416382 .2749939 .16217041 .29699708 .14016724 .29699708 .10417175 .29699708 .062179567 .272995 .008178711 .18099976 .008178711 .09399414 .008178711 .06298828 .07417297 .04499817 .16217041 .041992189 .17599488 .041992189 .1769867 .033996583 .1769867 .025985718 .1769867 .024993897 .17599488 .024993897 .1559906V.011993408C.024993897-.006011963 .025985718-.007003784 .03199768-.007003784 .036987306-.007003784 .037994386-.006011963 .042999269 .0019989014L.069992069 .045181276C.08999634 .018173218 .125-.0078125 .18099976-.0078125 .27999879-.0078125 .33299256 .046173097 .33299256 .124176029V.12454224Z"/>
<path id="font_1_74" d="M.79599 0V.025985718C.72698977 .025985718 .71598818 .025985718 .71598818 .07096863V.6116333C.71598818 .6566162 .72698977 .6566162 .79599 .6566162V.6826172H.6689911C.647995 .6826172 .6469879 .6816101 .6409912 .6666107L.4249878 .080963138 .20899964 .6666107C.20298767 .6816101 .20199585 .6826172 .18099976 .6826172H.052993776V.6566162C.12199402 .6566162 .1329956 .6566162 .1329956 .6116333V.09794617C.1329956 .07296753 .1329956 .025985718 .052993776 .025985718V0C.07598877 .0019989014 .117996219 .0019989014 .14299011 .0019989014 .16799927 .0019989014 .20999146 .0019989014 .23298645 0V.025985718C.15299988 .025985718 .15299988 .07296753 .15299988 .09794617V.65260317H.1539917L.3889923 .015991211C.3929901 .005996704 .394989 0 .40299989 0 .41099549 0 .41299439 .005996704 .4169922 .015991211L.6539917 .65760806H.6549988V.07096863C.6549988 .025985718 .6439972 .025985718 .57499697 .025985718V0C.60198977 .0019989014 .6559906 .0019989014 .68499758 .0019989014 .71398928 .0019989014 .7689972 .0019989014 .79599 0Z"/>
<path id="font_1_77" d="M.48298646 0V.025985718C.4189911 .025985718 .4149933 .02999878 .4149933 .06904602V.3043213C.4149933 .35539247 .40499879 .43847657 .2869873 .43847657 .20799256 .43847657 .16699219 .3774109 .1519928 .33737184H.15098572V.43847657L.032989503 .4273529V.4013672C.09199524 .4013672 .100997928 .39535523 .100997928 .3473053V.06903076C.100997928 .0309906 .09700012 .025985718 .032989503 .025985718V0C.056991579 .0019989014 .100997928 .0019989014 .1269989 .0019989014 .15299988 .0019989014 .19799805 .0019989014 .22200012 0V.025985718C.1579895 .025985718 .1539917 .02999878 .1539917 .06903076V.26123048C.1539917 .35339356 .20999146 .4224701 .27999879 .4224701 .35398866 .4224701 .3619995 .35638429 .3619995 .30833436V.06904602C.3619995 .03100586 .35798646 .025985718 .2939911 .025985718V0C.31799317 .0019989014 .3619995 .0019989014 .3880005 .0019989014 .4139862 .0019989014 .45899964 .0019989014 .48298646 0Z"/>
<path id="font_1_81" d="M.43099977 .21427918C.43099977 .34233094 .33799745 .4423828 .22898865 .4423828 .11999512 .4423828 .026992798 .34233094 .026992798 .21427918 .026992798 .08821106 .11999512-.0078125 .22898865-.0078125 .33799745-.0078125 .43099977 .08821106 .43099977 .21427918M.36698915 .22227478C.36698915 .18325806 .36499024 .12322998 .33799745 .07521057 .30999757 .029190064 .2669983 .010177612 .22898865 .010177612 .18199158 .010177612 .14199829 .03819275 .11898804 .07720947 .09399414 .12223816 .09098816 .17825318 .09098816 .22227478 .09098816 .2642975 .09298706 .3163147 .11898804 .36134339 .13899231 .3943634 .17799378 .42637635 .22898865 .42637635 .27398683 .42637635 .31199647 .4013672 .33599855 .36634828 .36698915 .31932069 .36698915 .2532959 .36698915 .22227478Z"/>
<path id="font_1_96" d="M.33299256 .3864746C.33299256 .4184723 .30099488 .43847657 .2669983 .43847657 .19099427 .43847657 .1579895 .36447145 .147995 .32946778H.14698792V.43847657L.0309906 .4273529V.4013672C.08999634 .4013672 .09899902 .39535523 .09899902 .3473053V.06903076C.09899902 .0309906 .09498596 .025985718 .0309906 .025985718V0C.054992677 .0019989014 .100997928 .0019989014 .1269989 .0019989014 .1559906 .0019989014 .20698548 .0019989014 .23399353 0V.025985718C.1619873 .026351929 .1499939 .026351929 .1499939 .07136536V.23635865C.1499939 .33236695 .19099427 .4224701 .2659912 .4224701 .272995 .4224701 .27999879 .421463 .2869873 .41844178 .2869873 .41844178 .2649994 .41140748 .2649994 .38536073 .2649994 .36135865 .28399659 .35136415 .29899598 .35136415 .31098939 .35136415 .33299256 .35835267 .33299256 .38635255V.3864746Z"/>
<path id="font_1_27" d="M.6689911 0V.025985718C.6159973 .025985718 .59799197 .025985718 .58499148 .06303406L.36299134 .6910248C.35798646 .70402529 .35598756 .70703127 .34599305 .70703127 .33599855 .70703127 .33399964 .70402529 .32899476 .6910248L.116989139 .091049198C.09799194 .037002565 .057998659 .025985718 .022994996 .025985718V0C.040985109 .0019989014 .08099365 .0019989014 .099990848 .0019989014 .125 .0019989014 .16499329 .0019989014 .18899536 0V.025985718C.14199829 .027999878 .1349945 .060028078 .1349945 .07203674 .1349945 .08103943 .13699341 .08604431 .13899231 .092056278L.19198609 .24121094H.45399476L.5139923 .07102966C.5189972 .059020997 .5189972 .057022096 .5189972 .053024293 .5189972 .025985718 .47599793 .025985718 .45700074 .025985718V0C.48599244 .0019989014 .5379944 .0019989014 .56900027 .0019989014 .59498599 .0019989014 .644989 .0019989014 .6689911 0M.44499208 .26719667H.20098877L.32299806 .61105349 .44499208 .26719667Z"/>
<path id="font_1_43" d="M.38398744 .11817932C.38398744 .122177127 .3829956 .1251831 .37599183 .1251831 .36898805 .1251831 .36799623 .124176029 .3639984 .11117554 .33799745 .030181885 .2809906 .010177612 .23799134 .010177612 .17399597 .010177612 .09700012 .06918335 .09700012 .21717835 .09700012 .36930848 .17098999 .42437745 .22999573 .42437745 .2689972 .42437745 .32699586 .40534974 .34899903 .35029603 .32998658 .35029603 .3019867 .35029603 .3019867 .31529237 .3019867 .28729249 .32499696 .27929688 .33799745 .27929688 .34498597 .27931214 .37399293 .28230287 .37399293 .31732179 .37399293 .3883667 .30599977 .4423828 .22898865 .4423828 .12298584 .4423828 .032989503 .3443451 .032989503 .21627808 .032989503 .083221439 .1269989-.0078125 .22898865-.0078125 .35299684-.0078125 .38398744 .10722351 .38398744 .1182251V.11817932Z"/>
<path id="font_1_68" d="M.18199158-.05470276V.43847657L.056991579 .42747499V.401474C.12298584 .401474 .1309967 .3944702 .1309967 .3464508V-.05871582C.1309967-.10871887 .12199402-.18713379 .06298828-.18713379 .055999757-.18713379 .0289917-.18612671 .0069885256-.17201233 .01399231-.17100525 .038986207-.16394043 .038986207-.13572693 .038986207-.11672974 .025985718-.099731449 .0029907227-.099731449-.019012452-.099731449-.03300476-.114730838-.03300476-.13671875-.03300476-.17704773 .010986328-.203125 .06199646-.203125 .1309967-.203125 .18199158-.13975525 .18199158-.05470276M.18199158 .60446169C.18199158 .62846377 .16299439 .64546206 .14199829 .64546206 .117996219 .64546206 .100997928 .62646487 .100997928 .60446169 .100997928 .58047488 .11999512 .56347659 .14099121 .56347659 .16499329 .56347659 .18199158 .58247378 .18199158 .60446169Z"/>
<path id="font_1_97" d="M.46398927 .18132019C.46398927 .23332215 .44499208 .27330018 .43399049 .29130555 .3919983 .35528565 .34700013 .36727906 .29899598 .37928773 .2919922 .38227845 .2899933 .38227845 .23399353 .39627076 .17999268 .41027833 .15699768 .41726686 .13198853 .44425965 .10398865 .47525025 .09399414 .5072479 .09399414 .5392456 .09399414 .6042328 .1459961 .6752167 .23098755 .6752167 .33699037 .6752167 .40299989 .600235 .41799928 .47525025 .42099 .45726014 .42199708 .4562683 .42900086 .4562683 .43798829 .4562683 .43798829 .45925904 .43798829 .47625733V.6792145C.43798829 .6972046 .43699647 .69821169 .43099977 .69821169 .4249878 .69821169 .4229889 .69421389 .4189911 .6852112L.3889923 .6192169C.35099793 .6742096 .29299928 .69921877 .22999573 .69921877 .12799073 .69921877 .04598999 .6182251 .04598999 .5162506 .04598999 .48526 .052993776 .44126893 .08699036 .39927674 .12399292 .35328675 .15899658 .34529115 .23899842 .32429505 .2689972 .31629945 .31900025 .30329896 .32899476 .29930116 .38598634 .27529908 .41600038 .21531677 .41600038 .15933228 .41600038 .08735657 .36499024 .010360718 .27799989 .010360718 .17098999 .010360718 .070999149 .07035828 .06399536 .21032715 .06298828 .22631836 .06199646 .22731018 .054992677 .22731018 .04699707 .22731018 .04598999 .22631836 .04598999 .20631409V.0043640139C.04598999-.013626099 .04699707-.014633179 .052993776-.014633179 .05999756-.014633179 .06199646-.009628296 .07598877 .021362305 .07699585 .024368287 .07699585 .026367188 .09599304 .06436157 .1459961-.0016326904 .22999573-.015625 .27799989-.015625 .3869934-.015625 .46398927 .0753479 .46398927 .18132019Z"/>
<path id="font_1_50" d="M.3849945 .25134278C.3849945 .35336305 .33099366 .4423828 .21699524 .4423828 .11099243 .4423828 .026992798 .34135438 .026992798 .21833802 .026992798 .08824158 .12199402-.0078125 .22799683-.0078125 .33999635-.0078125 .38398744 .09825134 .38398744 .119262699 .38398744 .12626648 .37599183 .12626648 .37599183 .12626648 .36898805 .12626648 .36799623 .12426758 .3639984 .11225891 .34199525 .044204713 .2869873 .010177612 .23498535 .010177612 .19198609 .010177612 .14898682 .034194948 .12199402 .07823181 .09098816 .12927246 .09098816 .18830872 .09098816 .23535156H.3809967C.3849945 .23934937 .3849945 .24134827 .3849945 .25134278M.33099366 .25035096H.09199524C.09899902 .3943634 .17599488 .42637635 .21598816 .42637635 .28399659 .42637635 .32998658 .36236573 .33099366 .25035096Z"/>
<path id="font_1_105" d="M.30699159 .1240387V.18096924H.2889862V.12503052C.2889862 .056121828 .2619934 .010177612 .21998596 .010177612 .19099427 .010177612 .15098572 .030151368 .15098572 .121032718V.40368653H.29100038V.4296875H.15098572V.6142578H.1329956C.1309967 .51148989 .09599304 .42167665 .010986328 .41967774V.40368653H.09799194V.123031619C.09799194 .10406494 .09799194-.0078125 .21398926-.0078125 .272995-.0078125 .30699159 .050125123 .30699159 .1240387Z"/>
<path id="font_2_1" d="M.44299317 .50320437C.44299317 .6051483 .41099549 .70410159 .32899476 .70410159 .18899536 .70410159 .039993287 .41127015 .039993287 .19126892 .039993287 .14524842 .049987794-.009765625 .15499878-.009765625 .29100038-.009765625 .44299317 .27627564 .44299317 .50320437M.13999939 .3623047C.15499878 .42126466 .17599488 .50520327 .21598816 .5761566 .24899292 .63612368 .28399659 .6840973 .32798768 .6840973 .36099244 .6840973 .3829956 .6561127 .3829956 .56018069 .3829956 .52420046 .37998963 .4742279 .35099793 .3623047H.13999939M.34399415 .33229066C.31900025 .23426819 .2979889 .17126465 .2619934 .10824585 .23298645 .057235719 .19799805 .010223389 .1559906 .010223389 .125 .010223389 .099990848 .034225465 .099990848 .133255 .099990848 .1982727 .115997318 .26628114 .13198853 .33229066H.34399415Z"/>
<path id="font_1_42" d="M.62098696 .23431397C.62098696 .24430847 .62098696 .24830628 .6119995 .24830628 .60398867 .24830628 .60398867 .24531555 .6029968 .23631287 .59498599 .096343997 .49499513 .010360718 .3869934 .010360718 .2849884 .010360718 .12199402 .082351688 .12199402 .34228517 .12199402 .6032257 .28799439 .6732178 .3849945 .6732178 .49798585 .6732178 .5799866 .5752411 .598999 .43626405 .6009979 .42427064 .6009979 .42227174 .6100006 .42227174 .62098696 .42227174 .62098696 .42427064 .62098696 .44226075V.6792145C.62098696 .6972046 .6199951 .69821169 .6139984 .69821169 .6100006 .69821169 .60899356 .6972046 .60198977 .6852112L.55799868 .6012268C.5089874 .663208 .44898988 .69921877 .37199403 .69921877 .20098877 .69921877 .04598999 .54823306 .04598999 .34228517 .04598999 .13433838 .20098877-.015625 .37298585-.015625 .526001-.015625 .62098696 .11933899 .62098696 .23431397Z"/>
<path id="font_1_63" d="M.48298646 0V.025985718C.4189911 .025985718 .4149933 .02999878 .4149933 .06904602V.3043213C.4149933 .35539247 .40499879 .43847657 .2869873 .43847657 .20498657 .43847657 .16499329 .372406 .15299988 .33937074H.1519928V.69433596L.032989503 .6826172V.6566162C.09199524 .6566162 .100997928 .65063479 .100997928 .602829V.06904602C.100997928 .03100586 .09700012 .025985718 .032989503 .025985718V0C.056991579 .0019989014 .100997928 .0019989014 .1269989 .0019989014 .15299988 .0019989014 .19799805 .0019989014 .22200012 0V.025985718C.1579895 .025985718 .1539917 .02999878 .1539917 .06904602V.26127626C.1539917 .35339356 .20999146 .4224701 .27999879 .4224701 .35398866 .4224701 .3619995 .35638429 .3619995 .30833436V.06904602C.3619995 .03100586 .35798646 .025985718 .2939911 .025985718V0C.31799317 .0019989014 .3619995 .0019989014 .3880005 .0019989014 .4139862 .0019989014 .45899964 .0019989014 .48298646 0Z"/>
<path id="font_1_59" d="M.45098878 .4072876C.45098878 .4262848 .43598939 .44628907 .4039917 .44628907 .3639984 .44647218 .32899476 .42747499 .30099488 .4013672 .2709961 .4284668 .23498535 .43847657 .20298767 .43847657 .12399292 .43847657 .055999757 .37635804 .055999757 .29336549 .055999757 .23635865 .08898926 .20036316 .09899902 .1903534 .068984989 .15466309 .068984989 .11366272 .068984989 .10865784 .068984989 .08265686 .07899475 .044662477 .11299133 .023666382 .06098938 .010665894 .019989014-.029281617 .019989014-.07922363 .019989014-.15115357 .114990238-.20410156 .22898865-.20410156 .33898927-.20410156 .43798829-.15315247 .43798829-.07823181 .43798829 .057662965 .2899933 .057662965 .21299744 .057662965 .18998719 .058059694 .14898682 .058059694 .14399719 .059066774 .11299133 .0640564 .09199524 .092056278 .09199524 .12704468 .09199524 .1360321 .09199524 .15803528 .11099243 .18006897 .12998963 .16503906 .16299439 .14802552 .20298767 .14802552 .28199769 .14802552 .34999085 .21014405 .34999085 .29336549 .34999085 .3194275 .34199525 .35954286 .31199647 .390625 .33999635 .42062379 .3809967 .4306183 .4039917 .4306183 .4079895 .4306183 .4139862 .4306183 .4189911 .4276123 .4149933 .42662049 .4059906 .42262269 .4059906 .4066162 .4059906 .39328004 .4149933 .38427735 .42799378 .38427735 .44299317 .38459779 .45098878 .3946228 .45098878 .4076233V.4072876M.29100038 .29336549C.29100038 .27331544 .29100038 .16503906 .20298767 .16503906 .114990238 .16503906 .114990238 .27331544 .114990238 .29336549 .114990238 .31341554 .114990238 .421463 .20298767 .421463 .29100038 .421463 .29100038 .31341554 .29100038 .29336549M.397995-.079071048C.397995-.13409424 .32899476-.18710327 .22898865-.18710327 .1289978-.18693543 .05999756-.13394165 .05999756-.078933719 .05999756-.047943117 .07699585-.018936158 .09899902-.0029296876 .12399292 .013671875 .13398743 .013671875 .20199585 .013671875 .28399659 .013671875 .397995 .013671875 .397995-.079330448V-.079071048Z"/>
<path id="font_1_75" d="M.74398806 0V.025985718C.6799927 .025985718 .6759949 .02999878 .6759949 .06904602V.3043213C.6759949 .35438539 .6669922 .43847657 .5479889 .43847657 .47999574 .43847657 .43299867 .3924408 .4149933 .33836366H.4139862C.4019928 .4204712 .34298707 .43847657 .2869873 .43847657 .20799256 .43847657 .16699219 .3774109 .1519928 .33737184H.15098572V.43847657L.032989503 .4273529V.4013672C.09199524 .4013672 .100997928 .39535523 .100997928 .3473053V.06903076C.100997928 .0309906 .09700012 .025985718 .032989503 .025985718V0C.056991579 .0019989014 .100997928 .0019989014 .1269989 .0019989014 .15299988 .0019989014 .19799805 .0019989014 .22200012 0V.025985718C.1579895 .025985718 .1539917 .02999878 .1539917 .06903076V.26123048C.1539917 .35339356 .20999146 .4224701 .27999879 .4224701 .35398866 .4224701 .3619995 .35638429 .3619995 .30833436V.06904602C.3619995 .03100586 .35798646 .025985718 .2939911 .025985718V0C.31799317 .0019989014 .3619995 .0019989014 .3880005 .0019989014 .4139862 .0019989014 .45899964 .0019989014 .48298646 0V.025985718C.4189911 .025985718 .4149933 .02999878 .4149933 .06904602V.26127626C.4149933 .35339356 .47099305 .4224701 .54100039 .4224701 .61499026 .4224701 .6230011 .35638429 .6230011 .30833436V.06904602C.6230011 .03100586 .61898806 .025985718 .5549927 .025985718V0C.57899478 .0019989014 .6230011 .0019989014 .6489868 .0019989014 .6749878 .0019989014 .7200012 .0019989014 .74398806 0Z"/>
<path id="font_1_55" d="M.31298829 .64056399C.31298829 .6785431 .2769928 .7015381 .23699951 .7015381 .17999268 .7015381 .101989749 .6545563 .101989749 .5486145V.4296875H.021987915V.40368653H.101989749V.06895447C.101989749 .0309906 .09799194 .025985718 .033996583 .025985718V0C.057998659 .0019989014 .10398865 .0019989014 .12998963 .0019989014 .15899658 .0019989014 .20999146 .0019989014 .23699951 0V.025985718C.16499329 .025680542 .15299988 .025680542 .15299988 .07067871V.40368653H.2669983V.4296875H.15098572V.550766C.15098572 .6338043 .19299317 .6855469 .23599243 .6855469 .24899292 .6855469 .2639923 .6816406 .27398683 .6748047 .2659912 .6727905 .24499512 .665802 .24499512 .64079287 .24499512 .61479189 .2649994 .60679629 .2789917 .60679629 .29299928 .60679629 .31298829 .61479189 .31298829 .64079287V.64056399Z"/>
</defs>
<path transform="matrix(1.00003,0,0,-1,184.4063,157.722)" stroke-width="1.19553" stroke-linecap="butt" stroke-dasharray="2.98883,2.98883" stroke-miterlimit="10" stroke-linejoin="miter" fill="none" stroke="#000000" d="M155.9083 0C155.9083 86.10687 86.10687 155.9083 0 155.9083-86.10687 155.9083-155.9083 86.10687-155.9083 0-155.9083-86.10687-86.10687-155.9083 0-155.9083 86.10687-155.9083 155.9083-86.10687 155.9083 0ZM0 0"/>
<path transform="matrix(1.00003,0,0,-1,184.4063,157.722)" stroke-width="1.19553" stroke-linecap="butt" stroke-miterlimit="10" stroke-linejoin="miter" fill="none" stroke="#0000ff" d="M141.73404 0C141.73404 78.27855 78.27855 141.73404 0 141.73404-78.27855 141.73404-141.73404 78.27855-141.73404 0-141.73404-78.27855-78.27855-141.73404 0-141.73404 78.27855-141.73404 141.73404-78.27855 141.73404 0ZM0 0"/>
<path transform="matrix(1.00003,0,0,-1,184.4063,157.722)" stroke-width="1.19553" stroke-linecap="butt" stroke-miterlimit="10" stroke-linejoin="miter" fill="none" stroke="#ff0000" d="M1.19551 0H140.53632"/>
<path transform="matrix(-1.00003,-0,0,1,185.00406,157.722)" stroke-width="1.19553" stroke-linecap="round" stroke-linejoin="round" fill="none" stroke="#ff0000" d="M-3.02867 3.83081C-2.47534 1.53229-1.24231 .44691 0 0-1.24231-.44691-2.47534-1.53229-3.02867-3.83081"/>
<path transform="matrix(1.00003,0,0,-1,325.54463,157.722)" stroke-width="1.19553" stroke-linecap="round" stroke-linejoin="round" fill="none" stroke="#ff0000" d="M-3.02867 3.83081C-2.47534 1.53229-1.24231 .44691 0 0-1.24231-.44691-2.47534-1.53229-3.02867-3.83081"/>
<path transform="matrix(1.00003,0,0,-1,184.4063,157.722)" stroke-width="1.19553" stroke-linecap="butt" stroke-miterlimit="10" stroke-linejoin="miter" fill="none" stroke="#ff0000" d="M0 0 70.86584 122.74365"/>
<use data-text="R" xlink:href="#font_1_95" transform="matrix(20.66312,0,0,-20.6625,226.65657,175.582)"/>
<use data-text="a" xlink:href="#font_1_28" transform="matrix(20.66312,0,0,-20.6625,240.7075,175.582)"/>
<use data-text="d" xlink:href="#font_1_47" transform="matrix(20.66312,0,0,-20.6625,250.19188,175.582)"/>
<use data-text="i" xlink:href="#font_1_66" transform="matrix(20.66312,0,0,-20.6625,260.75074,175.582)"/>
<use data-text="u" xlink:href="#font_1_109" transform="matrix(20.66312,0,0,-20.6625,265.9165,175.582)"/>
<use data-text="s" xlink:href="#font_1_98" transform="matrix(20.66312,0,0,-20.6625,276.47535,175.582)"/>
<path transform="matrix(1.00003,0,0,-1,184.4063,157.722)" stroke-width=".79701" stroke-linecap="butt" stroke-miterlimit="10" stroke-linejoin="miter" fill="none" stroke="#ff0000" d="M141.73184 0C141.73184 50.6307 114.71237 97.43024 71.555 122.34706"/>
<path transform="matrix(-.866036,-.49998,-.49999503,.86601,255.6183,35.17569)" stroke-width=".79701" stroke-linecap="round" stroke-linejoin="round" fill="none" stroke="#ff0000" d="M-2.55046 3.11095C-2.0845 1.24435-1.04614 .36295 0 0-1.04614-.36295-2.0845-1.24435-2.55046-3.11095"/>
<use data-text="M" xlink:href="#font_1_74" transform="matrix(20.66312,0,0,-20.6625,325.49055,86.99)" fill="#ff0000"/>
<use data-text="i" xlink:href="#font_1_66" transform="matrix(20.66312,0,0,-20.6625,343.0542,86.99)" fill="#ff0000"/>
<use data-text="n" xlink:href="#font_1_77" transform="matrix(20.66312,0,0,-20.6625,348.21998,86.99)" fill="#ff0000"/>
<use data-text="o" xlink:href="#font_1_81" transform="matrix(20.66312,0,0,-20.6625,358.77885,86.99)" fill="#ff0000"/>
<use data-text="r" xlink:href="#font_1_96" transform="matrix(20.66312,0,0,-20.6625,368.2632,86.99)" fill="#ff0000"/>
<use data-text="A" xlink:href="#font_1_27" transform="matrix(20.66312,0,0,-20.6625,381.81825,86.99)" fill="#ff0000"/>
<use data-text="r" xlink:href="#font_1_96" transform="matrix(20.66312,0,0,-20.6625,396.1378,86.99)" fill="#ff0000"/>
<use data-text="c" xlink:href="#font_1_43" transform="matrix(20.66312,0,0,-20.6625,403.4525,86.99)" fill="#ff0000"/>
<use data-text="M" xlink:href="#font_1_74" transform="matrix(20.66312,0,0,-20.6625,141.23,15.526993)" fill="#0000ff"/>
<use data-text="a" xlink:href="#font_1_28" transform="matrix(20.66312,0,0,-20.6625,158.79366,15.526993)" fill="#0000ff"/>
<use data-text="j" xlink:href="#font_1_68" transform="matrix(20.66312,0,0,-20.6625,168.81529,15.526993)" fill="#0000ff"/>
<use data-text="o" xlink:href="#font_1_81" transform="matrix(20.66312,0,0,-20.6625,174.51833,15.526993)" fill="#0000ff"/>
<use data-text="r" xlink:href="#font_1_96" transform="matrix(20.66312,0,0,-20.6625,184.0027,15.526993)" fill="#0000ff"/>
<use data-text="A" xlink:href="#font_1_27" transform="matrix(20.66312,0,0,-20.6625,197.55773,15.526993)" fill="#0000ff"/>
<use data-text="r" xlink:href="#font_1_96" transform="matrix(20.66312,0,0,-20.6625,211.87728,15.526993)" fill="#0000ff"/>
<use data-text="c" xlink:href="#font_1_43" transform="matrix(20.66312,0,0,-20.6625,219.192,15.526993)" fill="#0000ff"/>
<path transform="matrix(1.00003,0,0,-1,184.4063,157.722)" d="M0 0H141.73184C141.73184 50.6307 114.71237 97.43024 70.86478 122.74556Z" fill="#ffcccc" fill-opacity=".5"/>
<use data-text="S" xlink:href="#font_1_97" transform="matrix(20.66312,0,0,-20.6625,229.54965,143.519)" fill="#cc0000"/>
<use data-text="e" xlink:href="#font_1_50" transform="matrix(20.66312,0,0,-20.6625,240.10849,143.519)" fill="#cc0000"/>
<use data-text="c" xlink:href="#font_1_43" transform="matrix(20.66312,0,0,-20.6625,248.49774,143.519)" fill="#cc0000"/>
<use data-text="t" xlink:href="#font_1_105" transform="matrix(20.66312,0,0,-20.6625,256.88697,143.519)" fill="#cc0000"/>
<use data-text="o" xlink:href="#font_1_81" transform="matrix(20.66312,0,0,-20.6625,264.2017,143.519)" fill="#cc0000"/>
<use data-text="r" xlink:href="#font_1_96" transform="matrix(20.66312,0,0,-20.6625,273.6861,143.519)" fill="#cc0000"/>
<path transform="matrix(1.00003,0,0,-1,184.4063,157.722)" stroke-width=".3985" stroke-linecap="butt" stroke-miterlimit="10" stroke-linejoin="miter" fill="none" stroke="#000000" d="M28.34636 0C28.34636 10.12598 22.9423 19.48595 14.51828 24.34949"/>
<path transform="matrix(-.866036,-.49998,-.49999503,.86601,198.75246,133.27289)" stroke-width=".3985" stroke-linecap="round" stroke-linejoin="round" fill="none" stroke="#000000" d="M-2.07224 2.39104C-1.69365 .95639-.84999 .27895 0 0-.84999-.27895-1.69365-.95639-2.07224-2.39104"/>
<use data-text="&#x03b8;" xlink:href="#font_2_1" transform="matrix(20.66312,0,0,-20.6625,214.84522,150.722)"/>
<path transform="matrix(1.00003,0,0,-1,184.4063,157.722)" stroke-width=".79701" stroke-linecap="butt" stroke-miterlimit="10" stroke-linejoin="miter" fill="none" stroke="#000000" d="M-141.73404 28.34636 28.34636-141.73404"/>
<path transform="matrix(1.00003,0,0,-1,184.4063,157.722)" stroke-width="1.19553" stroke-linecap="butt" stroke-dasharray="2.98883,2.98883" stroke-miterlimit="10" stroke-linejoin="miter" fill="none" stroke="#009900" d="M-140.88869 41.67526 40.37901-139.59246"/>
<path transform="matrix(-.7071212,-.7071,-.7071212,.7071,43.090684,115.62407)" stroke-width="1.19553" stroke-linecap="round" stroke-linejoin="round" fill="none" stroke="#009900" d="M-3.02867 3.83081C-2.47534 1.53229-1.24231 .44691 0 0-1.24231-.44691-2.47534-1.53229-3.02867-3.83081"/>
<path transform="matrix(.7071212,.7071,.7071212,-.7071,224.36383,296.89179)" stroke-width="1.19553" stroke-linecap="round" stroke-linejoin="round" fill="none" stroke="#009900" d="M3.02867 3.83081C2.47534 1.53229 1.24231 .44691 0 0 1.24231-.44691 2.47534-1.53229 3.02867-3.83081"/>
<use data-text="C" xlink:href="#font_1_42" transform="matrix(20.66312,0,0,-20.6625,130.19867,207.299)" fill="#009900"/>
<use data-text="h" xlink:href="#font_1_63" transform="matrix(20.66312,0,0,-20.6625,144.00165,207.299)" fill="#009900"/>
<use data-text="o" xlink:href="#font_1_81" transform="matrix(20.66312,0,0,-20.6625,154.56049,207.299)" fill="#009900"/>
<use data-text="r" xlink:href="#font_1_96" transform="matrix(20.66312,0,0,-20.6625,164.04486,207.299)" fill="#009900"/>
<use data-text="d" xlink:href="#font_1_47" transform="matrix(20.66312,0,0,-20.6625,171.35962,207.299)" fill="#009900"/>
<path transform="matrix(1.00003,0,0,-1,184.4063,157.722)" d="M141.73184 0C141.73184 50.6307 114.71237 97.43024 70.86478 122.74556L70.86584 122.74365Z" fill="#ffb3b3" fill-opacity=".4"/>
<use data-text="S" xlink:href="#font_1_97" transform="matrix(-14.610892,-14.610454,-14.610892,14.610454,113.59377,235.58652)" fill="#990000"/>
<use data-text="e" xlink:href="#font_1_50" transform="matrix(-14.610892,-14.610454,-14.610892,14.610454,106.1276,228.12058)" fill="#990000"/>
<use data-text="g" xlink:href="#font_1_59" transform="matrix(-14.610892,-14.610454,-14.610892,14.610454,100.19558,222.18872)" fill="#990000"/>
<use data-text="m" xlink:href="#font_1_75" transform="matrix(-14.610892,-14.610454,-14.610892,14.610454,93.489177,215.48255)" fill="#990000"/>
<use data-text="e" xlink:href="#font_1_50" transform="matrix(-14.610892,-14.610454,-14.610892,14.610454,82.20957,204.20325)" fill="#990000"/>
<use data-text="n" xlink:href="#font_1_77" transform="matrix(-14.610892,-14.610454,-14.610892,14.610454,76.27754,198.27143)" fill="#990000"/>
<use data-text="t" xlink:href="#font_1_105" transform="matrix(-14.610892,-14.610454,-14.610892,14.610454,69.17665,191.17075)" fill="#990000"/>
<path transform="matrix(1.00003,0,0,-1,184.4063,157.722)" stroke-width=".79701" stroke-linecap="butt" stroke-miterlimit="10" stroke-linejoin="miter" fill="none" stroke="#0000ff" d="M-123.30788-70.86697C-109.6288-94.56152-89.93565-114.25467-66.93134-127.5353"/>
<path transform="matrix(.866066,.49995,.499965,-.86604,117.81807,285.45655)" stroke-width=".79701" stroke-linecap="round" stroke-linejoin="round" fill="none" stroke="#0000ff" d="M-2.55046 3.11095C-2.0845 1.24435-1.04614 .36295 0 0-1.04614-.36295-2.0845-1.24435-2.55046-3.11095"/>
<use data-text="C" xlink:href="#font_1_42" transform="matrix(-14.610892,-14.610454,-14.610892,14.610454,89.51208,293.75553)"/>
<use data-text="i" xlink:href="#font_1_66" transform="matrix(-14.610892,-14.610454,-14.610892,14.610454,79.75199,283.99574)"/>
<use data-text="r" xlink:href="#font_1_96" transform="matrix(-14.610892,-14.610454,-14.610892,14.610454,76.09928,280.34315)"/>
<use data-text="c" xlink:href="#font_1_43" transform="matrix(-14.610892,-14.610454,-14.610892,14.610454,70.927028,275.17103)"/>
<use data-text="u" xlink:href="#font_1_109" transform="matrix(-14.610892,-14.610454,-14.610892,14.610454,64.995,269.2392)"/>
<use data-text="m" xlink:href="#font_1_75" transform="matrix(-14.610892,-14.610454,-14.610892,14.610454,57.528848,261.77326)"/>
<use data-text="f" xlink:href="#font_1_55" transform="matrix(-14.610892,-14.610454,-14.610892,14.610454,46.24922,250.49399)"/>
<use data-text="e" xlink:href="#font_1_50" transform="matrix(-14.610892,-14.610454,-14.610892,14.610454,42.21663,246.46149)"/>
<use data-text="r" xlink:href="#font_1_96" transform="matrix(-14.610892,-14.610454,-14.610892,14.610454,36.284624,240.52967)"/>
<use data-text="e" xlink:href="#font_1_50" transform="matrix(-14.610892,-14.610454,-14.610892,14.610454,31.11235,235.35755)"/>
<use data-text="n" xlink:href="#font_1_77" transform="matrix(-14.610892,-14.610454,-14.610892,14.610454,25.180344,229.42572)"/>
<use data-text="c" xlink:href="#font_1_43" transform="matrix(-14.610892,-14.610454,-14.610892,14.610454,17.714188,221.95978)"/>
<use data-text="e" xlink:href="#font_1_50" transform="matrix(-14.610892,-14.610454,-14.610892,14.610454,11.78215,216.02796)"/>
</svg>
