<svg xmlns="http://www.w3.org/2000/svg" xmlns:xlink="http://www.w3.org/1999/xlink" xmlns:inkscape="http://www.inkscape.org/namespaces/inkscape" version="1.1" width="216" height="173" viewBox="0 0 216 173">
<defs>
<path id="font_1_82" d="M.38398744 0V.025985718H.35398866C.2679901 .025985718 .2659912 .037002565 .2659912 .073013309V.6391907C.2659912 .66012576 .2649994 .6611328 .25099183 .6611328 .21199036 .6142578 .15299988 .5993042 .09700012 .5973053 .09399414 .5973053 .08898926 .5973053 .08799744 .5953064 .08699036 .5933075 .08699036 .5913086 .08699036 .5703125 .117996219 .5703125 .16999817 .5763092 .20999146 .600296V.073013309C.20999146 .037994386 .20799256 .025985718 .12199402 .025985718H.09199524V0L.23799134 .0019989014 .38398744 0Z"/>
<path id="font_1_121" d="M.41999818 .3212433C.41999818 .38223268 .4189911 .4861908 .3769989 .5661621 .33999635 .6361389 .2809906 .6611328 .22898865 .6611328 .18099976 .6611328 .11999512 .63912966 .08198547 .56715396 .041992189 .4921875 .037994386 .3992157 .037994386 .3212433 .037994386 .26426698 .038986207 .17730713 .069992069 .10133362 .11299133-.0016326904 .18998719-.015625 .22898865-.015625 .2749939-.015625 .34498597 .0033721924 .38598634 .09832764 .41600038 .16731262 .41999818 .24827576 .41999818 .3212433M.35598756 .33224488C.35598756 .26727296 .35598756 .18730164 .34399415 .12832642 .32299806 .019363404 .2639923 .00036621095 .22898865 .00036621095 .16499329 .00036621095 .1269989 .055343629 .11299133 .13131714 .101989749 .19029236 .101989749 .27626039 .101989749 .33224488 .101989749 .4092102 .101989749 .4731903 .114990238 .5341644 .13398743 .6191406 .18998719 .64512637 .22898865 .64512637 .269989 .64512637 .32299806 .61813357 .34199525 .53616335 .35499574 .479187 .35598756 .4122162 .35598756 .33224488Z"/>
<path id="font_1_70" d="M.47499085 0V.025985718C.42799378 .025985718 .4169922 .034988405 .3869934 .078948978L.26098634 .26379396C.2599945 .26579286 .25498963 .27178956 .25498963 .27478028L.33499146 .3497162C.3919983 .39768983 .42799378 .40267945 .45399476 .40368653V.4296875C.44799806 .4296875 .44499208 .42868043 .44499208 .42868043L.3959961 .42767335C.36799623 .42767335 .32499696 .42767335 .2979889 .4296875V.40368653C.31199647 .40267945 .32199098 .39468385 .32199098 .38069154 .32199098 .36071778 .30099488 .34173585 .30099488 .34173585L.1499939 .20384217V.69433596L.0309906 .6826172V.6566162C.08999634 .6566162 .09899902 .65060427 .09899902 .6026459V.06896973C.09899902 .0309906 .09498596 .025985718 .0309906 .025985718V0C.054992677 .0019989014 .09899902 .0019989014 .12399292 .0019989014 .14898682 .0019989014 .19299317 .0019989014 .21699524 0V.025985718C.15299988 .025985718 .14898682 .02998352 .14898682 .06896973V.17889405L.21798706 .24186707 .31900025 .09194946C.33099366 .07395935 .34098817 .05996704 .34098817 .04698181 .34098817 .0289917 .32299806 .025985718 .31098939 .025985718V0C.33499146 .0019989014 .37799073 .0019989014 .40299989 .0019989014L.47499085 0Z"/>
<path id="font_1_75" d="M.74398806 0V.025985718C.6799927 .025985718 .6759949 .02999878 .6759949 .06904602V.3043213C.6759949 .35438539 .6669922 .43847657 .5479889 .43847657 .47999574 .43847657 .43299867 .3924408 .4149933 .33836366H.4139862C.4019928 .4204712 .34298707 .43847657 .2869873 .43847657 .20799256 .43847657 .16699219 .3774109 .1519928 .33737184H.15098572V.43847657L.032989503 .4273529V.4013672C.09199524 .4013672 .100997928 .39535523 .100997928 .3473053V.06903076C.100997928 .0309906 .09700012 .025985718 .032989503 .025985718V0C.056991579 .0019989014 .100997928 .0019989014 .1269989 .0019989014 .15299988 .0019989014 .19799805 .0019989014 .22200012 0V.025985718C.1579895 .025985718 .1539917 .02999878 .1539917 .06903076V.26123048C.1539917 .35339356 .20999146 .4224701 .27999879 .4224701 .35398866 .4224701 .3619995 .35638429 .3619995 .30833436V.06904602C.3619995 .03100586 .35798646 .025985718 .2939911 .025985718V0C.31799317 .0019989014 .3619995 .0019989014 .3880005 .0019989014 .4139862 .0019989014 .45899964 .0019989014 .48298646 0V.025985718C.4189911 .025985718 .4149933 .02999878 .4149933 .06904602V.26127626C.4149933 .35339356 .47099305 .4224701 .54100039 .4224701 .61499026 .4224701 .6230011 .35638429 .6230011 .30833436V.06904602C.6230011 .03100586 .61898806 .025985718 .5549927 .025985718V0C.57899478 .0019989014 .6230011 .0019989014 .6489868 .0019989014 .6749878 .0019989014 .7200012 .0019989014 .74398806 0Z"/>
</defs>
<path transform="matrix(1.00002,0,0,-1.00005,58.26291,157.11009)" d="M-14.17339 70.867H14.17339"/>
<path transform="matrix(1.00002,0,0,-1.00005,58.26291,157.11009)" stroke-width="1.19553" stroke-linecap="butt" stroke-miterlimit="10" stroke-linejoin="miter" fill="none" stroke="#0000ff" d="M-14.17339 70.867H14.17339"/>
<path transform="matrix(1.00002,0,0,-1.00005,58.26291,157.11009)" d="M70.867-14.17339V14.17339"/>
<path transform="matrix(1.00002,0,0,-1.00005,58.26291,157.11009)" stroke-width="1.19553" stroke-linecap="butt" stroke-miterlimit="10" stroke-linejoin="miter" fill="none" stroke="#0000ff" d="M70.867-14.17339V14.17339"/>
<path transform="matrix(1.00002,0,0,-1.00005,58.26291,157.11009)" d="M127.56062 70.867H155.90744"/>
<path transform="matrix(1.00002,0,0,-1.00005,58.26291,157.11009)" stroke-width="1.19553" stroke-linecap="butt" stroke-miterlimit="10" stroke-linejoin="miter" fill="none" stroke="#0000ff" d="M127.56062 70.867H155.90744"/>
<path transform="matrix(1.00002,0,0,-1.00005,58.26291,157.11009)" d="M70.867 127.56062V155.90744"/>
<path transform="matrix(1.00002,0,0,-1.00005,58.26291,157.11009)" stroke-width="1.19553" stroke-linecap="butt" stroke-miterlimit="10" stroke-linejoin="miter" fill="none" stroke="#0000ff" d="M70.867 127.56062V155.90744"/>
<path transform="matrix(1.00002,0,0,-1.00005,58.26291,157.11009)" d="M14.17339 0V14.17339"/>
<path transform="matrix(1.00002,0,0,-1.00005,58.26291,157.11009)" stroke-width="1.19553" stroke-linecap="butt" stroke-miterlimit="10" stroke-linejoin="miter" fill="none" stroke="#0000ff" d="M14.17339 0V14.17339"/>
<path transform="matrix(1.00002,0,0,-1.00005,58.26291,157.11009)" d="M0 14.17339H14.17339"/>
<path transform="matrix(1.00002,0,0,-1.00005,58.26291,157.11009)" stroke-width="1.19553" stroke-linecap="butt" stroke-miterlimit="10" stroke-linejoin="miter" fill="none" stroke="#0000ff" d="M0 14.17339H14.17339"/>
<path transform="matrix(1.00002,0,0,-1.00005,58.26291,157.11009)" d="M14.17339 127.56062V141.73404"/>
<path transform="matrix(1.00002,0,0,-1.00005,58.26291,157.11009)" stroke-width="1.19553" stroke-linecap="butt" stroke-miterlimit="10" stroke-linejoin="miter" fill="none" stroke="#0000ff" d="M14.17339 127.56062V141.73404"/>
<path transform="matrix(1.00002,0,0,-1.00005,58.26291,157.11009)" d="M0 127.56062H14.17339"/>
<path transform="matrix(1.00002,0,0,-1.00005,58.26291,157.11009)" stroke-width="1.19553" stroke-linecap="butt" stroke-miterlimit="10" stroke-linejoin="miter" fill="none" stroke="#0000ff" d="M0 127.56062H14.17339"/>
<use data-text="1" xlink:href="#font_1_82" transform="matrix(24.787596,0,0,-24.788338,-.78427127,94.642978)" fill="#0000ff"/>
<use data-text="0" xlink:href="#font_1_121" transform="matrix(24.787596,0,0,-24.788338,10.593231,94.642978)" fill="#0000ff"/>
<use data-text="k" xlink:href="#font_1_70" transform="matrix(24.787596,0,0,-24.788338,29.456574,94.642978)" fill="#0000ff"/>
<use data-text="m" xlink:href="#font_1_75" transform="matrix(24.787596,0,0,-24.788338,41.47856,94.642978)" fill="#0000ff"/>
<path transform="matrix(1.00002,0,0,-1.00005,58.26291,157.11009)" d="M0 0V141.73404H141.73404V0H0" fill="#ffffff"/>
<path transform="matrix(1.00002,0,0,-1.00005,58.26291,157.11009)" stroke-width="1.19553" stroke-linecap="butt" stroke-miterlimit="10" stroke-linejoin="miter" fill="none" stroke="#0000ff" d="M0 0V141.73404H141.73404V0H0"/>
</svg>
