<svg xmlns="http://www.w3.org/2000/svg" xmlns:xlink="http://www.w3.org/1999/xlink" xmlns:inkscape="http://www.inkscape.org/namespaces/inkscape" version="1.1" width="367" height="365" viewBox="0 0 367 365">
<defs>
<path id="font_1_43" d="M.4149933 .119140628C.4149933 .12911988 .40499879 .12911988 .4019928 .12911988 .3929901 .12911988 .3909912 .12512207 .3889923 .119140628 .3600006 .026229859 .29499818 .014251709 .2579956 .014251709 .20498657 .014251709 .116989139 .0572052 .116989139 .21801758 .116989139 .38093568 .19898987 .42323304 .2519989 .42323304 .26098634 .42323304 .32398988 .42222596 .35899354 .38594056 .31799317 .38293458 .31199647 .3529358 .31199647 .3399353 .31199647 .31393434 .32998658 .2939453 .35798646 .2939453 .38398744 .2939453 .4039917 .3109436 .4039917 .34094239 .4039917 .40911866 .32798768 .4482422 .25099183 .4482422 .12599182 .4482422 .033996583 .3399353 .033996583 .21601868 .033996583 .08816528 .1329956-.0107421879 .24899292-.0107421879 .3829956-.0107421879 .4149933 .10914612 .4149933 .119140628Z"/>
<path id="font_1_75" d="M.8129883 0V.0309906C.7609863 .0309906 .73599246 .0309906 .7350006 .061019899V.25221253C.7350006 .3383026 .7350006 .36932374 .70399478 .405365 .6899872 .42237855 .6569977 .4423828 .598999 .4423828 .5149994 .4423828 .47099305 .38233949 .45399476 .34429933 .43998719 .43138124 .3659973 .4423828 .32099916 .4423828 .24798584 .4423828 .20098877 .39935304 .17298889 .33729554V.4423828L.03199768 .43066407V.3996582C.101989749 .3996582 .10998535 .39266969 .10998535 .34370423V.07595825C.10998535 .0309906 .09899902 .0309906 .03199768 .0309906V0L.14498902 .0029907227 .25698854 0V.0309906C.18998719 .0309906 .1789856 .0309906 .1789856 .07595825V.25978089C.1789856 .36431886 .25 .42037965 .31399537 .42037965 .3769989 .42037965 .3880005 .36631776 .3880005 .30926515V.076034549C.3880005 .0309906 .3769989 .0309906 .30999757 .0309906V0L.4229889 .0029907227 .5349884 0V.0309906C.46798707 .0309906 .45700074 .0309906 .45700074 .076034549V.2602234C.45700074 .36431886 .5279999 .42037965 .59199526 .42037965 .6549988 .42037965 .66600039 .36631776 .66600039 .30926515V.076034549C.66600039 .0309906 .6549988 .0309906 .58799746 .0309906V0L.70098879 .0029907227 .8129883 0Z"/>
<path id="font_1_47" d="M.5269928 0V.0309906C.45700074 .0309906 .44898988 .038009645 .44898988 .0871582V.69433596L.30499269 .6826172V.6516113C.375 .6516113 .3829956 .64463809 .3829956 .59580996V.38035584C.35398866 .41636659 .31098939 .4423828 .25698854 .4423828 .13899231 .4423828 .033996583 .3443451 .033996583 .21531677 .033996583 .088272098 .13198853-.0107421879 .24598694-.0107421879 .30999757-.0107421879 .35499574 .023254395 .37998963 .055267335V-.0107421879L.5269928 0M.37998963 .117996219C.37998963 .099990848 .37998963 .09799194 .36898805 .08099365 .33898927 .033218385 .2939911 .011245728 .25099183 .011245728 .20599365 .011245728 .16999817 .037216188 .1459961 .075164798 .11999512 .1161499 .116989139 .17320252 .116989139 .21421814 .116989139 .25125123 .11898804 .31129457 .147995 .35632325 .16899109 .38734437 .20698548 .42037965 .26098634 .42037965 .29599 .42037965 .33799745 .405365 .36898805 .3603363 .37998963 .34332276 .37998963 .34132386 .37998963 .32330323V.117996219Z"/>
<path id="font_1_46" d="M.70700076 .33580018C.70700076 .52568057 .57199099 .6826172 .40098573 .6826172H.034988405V.6516113H.05899048C.13598633 .6516113 .13798523 .64060977 .13798523 .6046295V.07795715C.13798523 .041992189 .13598633 .0309906 .05899048 .0309906H.034988405V0H.40098573C.56900027 0 .70700076 .1479187 .70700076 .33580018M.6069946 .33580018C.6069946 .22486878 .58799746 .16490174 .5519867 .11593628 .5319977 .08895874 .47499085 .0309906 .37399293 .0309906H.272995C.22599793 .0309906 .22399903 .037994386 .22399903 .07096863V.6116333C.22399903 .64460757 .22599793 .6516113 .272995 .6516113H.37298585C.43499757 .6516113 .5039978 .6296234 .5549927 .55867007 .59799197 .49969483 .6069946 .41375733 .6069946 .33580018Z"/>
<path id="font_1_62" d="M.71598818 0V.0309906H.69200137C.61499026 .0309906 .61299136 .041992189 .61299136 .07797241V.6046448C.61299136 .640625 .61499026 .6516113 .69200137 .6516113H.71598818V.6826172C.68099978 .6796112 .6069946 .6796112 .56900027 .6796112 .5309906 .6796112 .45599366 .6796112 .42099 .6826172V.6516113H.44499208C.5219879 .6516113 .5239868 .640625 .5239868 .6046448V.37083436H.22499085V.6046448C.22499085 .640625 .22698975 .6516113 .3039856 .6516113H.32798768V.6826172C.29299928 .6796112 .21899414 .6796112 .18099976 .6796112 .14299011 .6796112 .067993167 .6796112 .032989503 .6826172V.6516113H.056991579C.13398743 .6516113 .13598633 .640625 .13598633 .6046448V.07797241C.13598633 .041992189 .13398743 .0309906 .056991579 .0309906H.032989503V0C.067993167 .0029907227 .14199829 .0029907227 .17999268 .0029907227 .21798706 .0029907227 .29299928 .0029907227 .32798768 0V.0309906H.3039856C.22698975 .0309906 .22499085 .041992189 .22499085 .07797241V.33984376H.5239868V.07797241C.5239868 .041992189 .5219879 .0309906 .44499208 .0309906H.42099V0C.45599366 .0029907227 .5299988 .0029907227 .56799319 .0029907227 .60598757 .0029907227 .68099978 .0029907227 .71598818 0Z"/>
<path id="font_1_70" d="M.5109863 0V.0309906C.47399903 .0309906 .45199586 .0309906 .4139862 .0839386L.2869873 .26278688C.28599549 .26478578 .2809906 .2707672 .2809906 .2737732 .2809906 .277771 .35198976 .33770753 .3619995 .34570313 .4249878 .39666749 .46699525 .39865113 .48799134 .3996582V.43066407C.45899964 .42765809 .44599916 .42765809 .41799928 .42765809 .38198854 .42765809 .31999208 .42965699 .30599977 .43066407V.3996582C.32499696 .39865113 .33499146 .3876648 .33499146 .37467958 .33499146 .3547058 .32099916 .3427124 .31298829 .33570863L.17199707 .21382141V.69433596L.027999878 .6826172V.6516113C.09799194 .6516113 .10598755 .64460757 .10598755 .5956421V.07595825C.10598755 .0309906 .09498596 .0309906 .027999878 .0309906V0L.13699341 .0029907227 .24699402 0V.0309906C.17999268 .0309906 .16899109 .0309906 .16899109 .07595825V.17889405L.23298645 .23387146C.30999757 .12792969 .35198976 .07196045 .35198976 .053985597 .35198976 .034988405 .33499146 .0309906 .31599427 .0309906V0L.42399598 .0029907227C.45298768 .0029907227 .48199464 .0019989014 .5109863 0Z"/>
<path id="font_2_82" d="M.38398744 0V.025985718H.35398866C.2679901 .025985718 .2659912 .037002565 .2659912 .073013309V.6391907C.2659912 .66012576 .2649994 .6611328 .25099183 .6611328 .21199036 .6142578 .15299988 .5993042 .09700012 .5973053 .09399414 .5973053 .08898926 .5973053 .08799744 .5953064 .08699036 .5933075 .08699036 .5913086 .08699036 .5703125 .117996219 .5703125 .16999817 .5763092 .20999146 .600296V.073013309C.20999146 .037994386 .20799256 .025985718 .12199402 .025985718H.09199524V0L.23799134 .0019989014 .38398744 0Z"/>
<path id="font_2_121" d="M.41999818 .3212433C.41999818 .38223268 .4189911 .4861908 .3769989 .5661621 .33999635 .6361389 .2809906 .6611328 .22898865 .6611328 .18099976 .6611328 .11999512 .63912966 .08198547 .56715396 .041992189 .4921875 .037994386 .3992157 .037994386 .3212433 .037994386 .26426698 .038986207 .17730713 .069992069 .10133362 .11299133-.0016326904 .18998719-.015625 .22898865-.015625 .2749939-.015625 .34498597 .0033721924 .38598634 .09832764 .41600038 .16731262 .41999818 .24827576 .41999818 .3212433M.35598756 .33224488C.35598756 .26727296 .35598756 .18730164 .34399415 .12832642 .32299806 .019363404 .2639923 .00036621095 .22898865 .00036621095 .16499329 .00036621095 .1269989 .055343629 .11299133 .13131714 .101989749 .19029236 .101989749 .27626039 .101989749 .33224488 .101989749 .4092102 .101989749 .4731903 .114990238 .5341644 .13398743 .6191406 .18998719 .64512637 .22898865 .64512637 .269989 .64512637 .32299806 .61813357 .34199525 .53616335 .35499574 .479187 .35598756 .4122162 .35598756 .33224488Z"/>
</defs>
<path transform="matrix(1,0,0,-1,14.829002,353.039)" d="M0 56.69362H56.69362V113.38724H113.38724V170.08086H170.08086V226.77448H226.77448V283.4681H283.4681V340.1617H340.1617V0H0V56.69362" fill="#ffbfbf"/>
<path transform="matrix(1,0,0,-1,14.829002,353.039)" stroke-width="1.19553" stroke-linecap="butt" stroke-miterlimit="10" stroke-linejoin="miter" fill="none" stroke="#000000" d="M0 56.69362H56.69362V113.38724H113.38724V170.08086H170.08086V226.77448H226.77448V283.4681H283.4681V340.1617H340.1617V0H0V56.69362"/>
<path transform="matrix(1,0,0,-1,14.829002,353.039)" d="M-8.50412 0V55.4981" fill="#0000ff"/>
<path transform="matrix(1,0,0,-1,14.829002,353.039)" stroke-width="1.19553" stroke-linecap="butt" stroke-miterlimit="10" stroke-linejoin="miter" fill="none" stroke="#000000" d="M-8.50412 0V55.4981"/>
<path transform="matrix(0,-1,-1,-0,6.3248827,296.94316)" stroke-width="1.19553" stroke-linecap="round" stroke-linejoin="round" fill="none" stroke="#000000" d="M-3.02867 3.83081C-2.47534 1.53229-1.24231 .44691 0 0-1.24231-.44691-2.47534-1.53229-3.02867-3.83081"/>
<path transform="matrix(1,0,0,-1,14.829002,353.039)" d="M48.18947 56.69362V112.19171" fill="#0000ff"/>
<path transform="matrix(1,0,0,-1,14.829002,353.039)" stroke-width="1.19553" stroke-linecap="butt" stroke-miterlimit="10" stroke-linejoin="miter" fill="none" stroke="#000000" d="M48.18947 56.69362V112.19171"/>
<path transform="matrix(0,-1,-1,-0,63.01847,240.24954)" stroke-width="1.19553" stroke-linecap="round" stroke-linejoin="round" fill="none" stroke="#000000" d="M-3.02867 3.83081C-2.47534 1.53229-1.24231 .44691 0 0-1.24231-.44691-2.47534-1.53229-3.02867-3.83081"/>
<path transform="matrix(1,0,0,-1,14.829002,353.039)" d="M104.88309 113.38724V168.88533" fill="#0000ff"/>
<path transform="matrix(1,0,0,-1,14.829002,353.039)" stroke-width="1.19553" stroke-linecap="butt" stroke-miterlimit="10" stroke-linejoin="miter" fill="none" stroke="#000000" d="M104.88309 113.38724V168.88533"/>
<path transform="matrix(0,-1,-1,-0,119.71209,183.55591)" stroke-width="1.19553" stroke-linecap="round" stroke-linejoin="round" fill="none" stroke="#000000" d="M-3.02867 3.83081C-2.47534 1.53229-1.24231 .44691 0 0-1.24231-.44691-2.47534-1.53229-3.02867-3.83081"/>
<path transform="matrix(1,0,0,-1,14.829002,353.039)" d="M161.5767 170.08086V225.57897" fill="#0000ff"/>
<path transform="matrix(1,0,0,-1,14.829002,353.039)" stroke-width="1.19553" stroke-linecap="butt" stroke-miterlimit="10" stroke-linejoin="miter" fill="none" stroke="#000000" d="M161.5767 170.08086V225.57897"/>
<path transform="matrix(0,-1,-1,-0,176.4057,126.86229)" stroke-width="1.19553" stroke-linecap="round" stroke-linejoin="round" fill="none" stroke="#000000" d="M-3.02867 3.83081C-2.47534 1.53229-1.24231 .44691 0 0-1.24231-.44691-2.47534-1.53229-3.02867-3.83081"/>
<path transform="matrix(1,0,0,-1,14.829002,353.039)" d="M218.27034 226.77448V282.27259" fill="#0000ff"/>
<path transform="matrix(1,0,0,-1,14.829002,353.039)" stroke-width="1.19553" stroke-linecap="butt" stroke-miterlimit="10" stroke-linejoin="miter" fill="none" stroke="#000000" d="M218.27034 226.77448V282.27259"/>
<path transform="matrix(0,-1,-1,-0,233.09934,70.16867)" stroke-width="1.19553" stroke-linecap="round" stroke-linejoin="round" fill="none" stroke="#000000" d="M-3.02867 3.83081C-2.47534 1.53229-1.24231 .44691 0 0-1.24231-.44691-2.47534-1.53229-3.02867-3.83081"/>
<path transform="matrix(1,0,0,-1,14.829002,353.039)" d="M274.96397 283.4681V338.9662" fill="#0000ff"/>
<path transform="matrix(1,0,0,-1,14.829002,353.039)" stroke-width="1.19553" stroke-linecap="butt" stroke-miterlimit="10" stroke-linejoin="miter" fill="none" stroke="#000000" d="M274.96397 283.4681V338.9662"/>
<path transform="matrix(0,-1,-1,-0,289.79298,13.475037)" stroke-width="1.19553" stroke-linecap="round" stroke-linejoin="round" fill="none" stroke="#000000" d="M-3.02867 3.83081C-2.47534 1.53229-1.24231 .44691 0 0-1.24231-.44691-2.47534-1.53229-3.02867-3.83081"/>
<path transform="matrix(1,0,0,-1,14.829002,353.039)" d="M0 51.02432H55.4981" fill="#0000ff"/>
<path transform="matrix(1,0,0,-1,14.829002,353.039)" stroke-width="1.19553" stroke-linecap="butt" stroke-miterlimit="10" stroke-linejoin="miter" fill="none" stroke="#000000" d="M0 51.02432H55.4981"/>
<path transform="matrix(1,0,0,-1,70.924869,302.01469)" stroke-width="1.19553" stroke-linecap="round" stroke-linejoin="round" fill="none" stroke="#000000" d="M-3.02867 3.83081C-2.47534 1.53229-1.24231 .44691 0 0-1.24231-.44691-2.47534-1.53229-3.02867-3.83081"/>
<path transform="matrix(1,0,0,-1,14.829002,353.039)" d="M56.69362 107.71794H112.19171" fill="#0000ff"/>
<path transform="matrix(1,0,0,-1,14.829002,353.039)" stroke-width="1.19553" stroke-linecap="butt" stroke-miterlimit="10" stroke-linejoin="miter" fill="none" stroke="#000000" d="M56.69362 107.71794H112.19171"/>
<path transform="matrix(1,0,0,-1,127.61847,245.32106)" stroke-width="1.19553" stroke-linecap="round" stroke-linejoin="round" fill="none" stroke="#000000" d="M-3.02867 3.83081C-2.47534 1.53229-1.24231 .44691 0 0-1.24231-.44691-2.47534-1.53229-3.02867-3.83081"/>
<path transform="matrix(1,0,0,-1,14.829002,353.039)" d="M113.38724 164.41156H168.88533" fill="#0000ff"/>
<path transform="matrix(1,0,0,-1,14.829002,353.039)" stroke-width="1.19553" stroke-linecap="butt" stroke-miterlimit="10" stroke-linejoin="miter" fill="none" stroke="#000000" d="M113.38724 164.41156H168.88533"/>
<path transform="matrix(1,0,0,-1,184.3121,188.62744)" stroke-width="1.19553" stroke-linecap="round" stroke-linejoin="round" fill="none" stroke="#000000" d="M-3.02867 3.83081C-2.47534 1.53229-1.24231 .44691 0 0-1.24231-.44691-2.47534-1.53229-3.02867-3.83081"/>
<path transform="matrix(1,0,0,-1,14.829002,353.039)" d="M170.08086 221.10518H225.57897" fill="#0000ff"/>
<path transform="matrix(1,0,0,-1,14.829002,353.039)" stroke-width="1.19553" stroke-linecap="butt" stroke-miterlimit="10" stroke-linejoin="miter" fill="none" stroke="#000000" d="M170.08086 221.10518H225.57897"/>
<path transform="matrix(1,0,0,-1,241.0057,131.93383)" stroke-width="1.19553" stroke-linecap="round" stroke-linejoin="round" fill="none" stroke="#000000" d="M-3.02867 3.83081C-2.47534 1.53229-1.24231 .44691 0 0-1.24231-.44691-2.47534-1.53229-3.02867-3.83081"/>
<path transform="matrix(1,0,0,-1,14.829002,353.039)" d="M226.77448 277.7988H282.27259" fill="#0000ff"/>
<path transform="matrix(1,0,0,-1,14.829002,353.039)" stroke-width="1.19553" stroke-linecap="butt" stroke-miterlimit="10" stroke-linejoin="miter" fill="none" stroke="#000000" d="M226.77448 277.7988H282.27259"/>
<path transform="matrix(1,0,0,-1,297.69935,75.240207)" stroke-width="1.19553" stroke-linecap="round" stroke-linejoin="round" fill="none" stroke="#000000" d="M-3.02867 3.83081C-2.47534 1.53229-1.24231 .44691 0 0-1.24231-.44691-2.47534-1.53229-3.02867-3.83081"/>
<path transform="matrix(1,0,0,-1,14.829002,353.039)" d="M283.4681 334.49244H337.54878" fill="#0000ff"/>
<path transform="matrix(1,0,0,-1,14.829002,353.039)" stroke-width="1.19553" stroke-linecap="butt" stroke-miterlimit="10" stroke-linejoin="miter" fill="none" stroke="#000000" d="M283.4681 334.49244H337.54878"/>
<path transform="matrix(1,0,0,-1,352.97554,18.54657)" stroke-width="1.19553" stroke-linecap="round" stroke-linejoin="round" fill="none" stroke="#000000" d="M-3.02867 3.83081C-2.47534 1.53229-1.24231 .44691 0 0-1.24231-.44691-2.47534-1.53229-3.02867-3.83081"/>
<path transform="matrix(1,0,0,-1,14.829002,353.039)" d="M0-5.66927H338.9662" fill="#0000ff"/>
<path transform="matrix(1,0,0,-1,14.829002,353.039)" stroke-width="1.19553" stroke-linecap="butt" stroke-miterlimit="10" stroke-linejoin="miter" fill="none" stroke="#000000" d="M0-5.66927H338.9662"/>
<path transform="matrix(1,0,0,-1,354.39299,358.70829)" stroke-width="1.19553" stroke-linecap="round" stroke-linejoin="round" fill="none" stroke="#000000" d="M-3.02867 3.83081C-2.47534 1.53229-1.24231 .44691 0 0-1.24231-.44691-2.47534-1.53229-3.02867-3.83081"/>
<path transform="matrix(1,0,0,-1,14.829002,353.039)" d="M345.831 0V338.9662" fill="#0000ff"/>
<path transform="matrix(1,0,0,-1,14.829002,353.039)" stroke-width="1.19553" stroke-linecap="butt" stroke-miterlimit="10" stroke-linejoin="miter" fill="none" stroke="#000000" d="M345.831 0V338.9662"/>
<path transform="matrix(0,-1,-1,-0,360.66,13.475037)" stroke-width="1.19553" stroke-linecap="round" stroke-linejoin="round" fill="none" stroke="#000000" d="M-3.02867 3.83081C-2.47534 1.53229-1.24231 .44691 0 0-1.24231-.44691-2.47534-1.53229-3.02867-3.83081"/>
<use data-text="c" xlink:href="#font_1_43" transform="matrix(9.9626,0,0,-9.9626,31.145005,290.018)" fill="#0000ff"/>
<use data-text="m" xlink:href="#font_1_75" transform="matrix(9.9626,0,0,-9.9626,35.568399,290.018)" fill="#0000ff"/>
<use data-text="d" xlink:href="#font_1_47" transform="matrix(9.9626,0,0,-9.9626,87.281009,234.55)" fill="#0000ff"/>
<use data-text="m" xlink:href="#font_1_75" transform="matrix(9.9626,0,0,-9.9626,92.82021,234.55)" fill="#0000ff"/>
<use data-text="m" xlink:href="#font_1_75" transform="matrix(9.9626,0,0,-9.9626,146.74399,176.656)" fill="#0000ff"/>
<use data-text="D" xlink:href="#font_1_46" transform="matrix(9.9626,0,0,-9.9626,199.63199,121.162998)" fill="#0000ff"/>
<use data-text="m" xlink:href="#font_1_75" transform="matrix(9.9626,0,0,-9.9626,207.24343,121.162998)" fill="#0000ff"/>
<use data-text="H" xlink:href="#font_1_62" transform="matrix(9.9626,0,0,-9.9626,256.395,64.468997)" fill="#0000ff"/>
<use data-text="m" xlink:href="#font_1_75" transform="matrix(9.9626,0,0,-9.9626,263.86695,64.468997)" fill="#0000ff"/>
<use data-text="k" xlink:href="#font_1_70" transform="matrix(9.9626,0,0,-9.9626,314.195,7.8299868)" fill="#0000ff"/>
<use data-text="m" xlink:href="#font_1_75" transform="matrix(9.9626,0,0,-9.9626,319.45527,7.8299868)" fill="#0000ff"/>
<use data-text="1" xlink:href="#font_2_82" transform="matrix(20.6625,0,0,-20.6625,13.848999,331.356)" fill="#0000ff"/>
<use data-text="0" xlink:href="#font_2_121" transform="matrix(20.6625,0,0,-20.6625,23.333085,331.356)" fill="#0000ff"/>
<use data-text="1" xlink:href="#font_2_82" transform="matrix(20.6625,0,0,-20.6625,70.543,274.662)" fill="#0000ff"/>
<use data-text="0" xlink:href="#font_2_121" transform="matrix(20.6625,0,0,-20.6625,80.027088,274.662)" fill="#0000ff"/>
<use data-text="1" xlink:href="#font_2_82" transform="matrix(20.6625,0,0,-20.6625,127.236,217.969)" fill="#0000ff"/>
<use data-text="0" xlink:href="#font_2_121" transform="matrix(20.6625,0,0,-20.6625,136.7201,217.969)" fill="#0000ff"/>
<use data-text="1" xlink:href="#font_2_82" transform="matrix(20.6625,0,0,-20.6625,183.93,161.275)" fill="#0000ff"/>
<use data-text="0" xlink:href="#font_2_121" transform="matrix(20.6625,0,0,-20.6625,193.4141,161.275)" fill="#0000ff"/>
<use data-text="1" xlink:href="#font_2_82" transform="matrix(20.6625,0,0,-20.6625,240.62302,104.58101)" fill="#0000ff"/>
<use data-text="0" xlink:href="#font_2_121" transform="matrix(20.6625,0,0,-20.6625,250.10709,104.58101)" fill="#0000ff"/>
<use data-text="1" xlink:href="#font_2_82" transform="matrix(20.6625,0,0,-20.6625,297.31703,47.888)" fill="#0000ff"/>
<use data-text="0" xlink:href="#font_2_121" transform="matrix(20.6625,0,0,-20.6625,306.8011,47.888)" fill="#0000ff"/>
</svg>
