<svg xmlns="http://www.w3.org/2000/svg" xmlns:xlink="http://www.w3.org/1999/xlink" xmlns:inkscape="http://www.inkscape.org/namespaces/inkscape" version="1.1" width="365" height="353" viewBox="0 0 365 353">
<defs>
<path id="font_1_63" d="M.5349884 0V.0309906C.48298646 .0309906 .45799256 .0309906 .45700074 .061019899V.25221253C.45700074 .3383026 .45700074 .36932374 .42599488 .405365 .4119873 .42237855 .3789978 .4423828 .32099916 .4423828 .23699951 .4423828 .19299317 .38233949 .1769867 .34629823H.17599488V.69433596L.03199768 .6826172V.6516113C.101989749 .6516113 .10998535 .64463809 .10998535 .59580996V.076034549C.10998535 .0309906 .09899902 .0309906 .03199768 .0309906V0L.14498902 .0029907227 .25698854 0V.0309906C.18998719 .0309906 .1789856 .0309906 .1789856 .076034549V.2602234C.1789856 .36431886 .25 .42037965 .31399537 .42037965 .3769989 .42037965 .3880005 .36631776 .3880005 .30926515V.076034549C.3880005 .0309906 .3769989 .0309906 .30999757 .0309906V0L.4229889 .0029907227 .5349884 0Z"/>
</defs>
<path transform="matrix(1,0,0,-1.00003,13.910004,342.16578)" d="M0 56.69362H56.69362V113.38724H113.38724V170.08086H170.08086V226.77448H226.77448V283.4681H283.4681V340.1617H340.1617V0H0V56.69362" fill="#ffffff"/>
<path transform="matrix(1,0,0,-1.00003,13.910004,342.16578)" stroke-width=".79701" stroke-linecap="butt" stroke-miterlimit="10" stroke-linejoin="miter" fill="none" stroke="#000000" d="M0 56.69362H56.69362V113.38724H113.38724V170.08086H170.08086V226.77448H226.77448V283.4681H283.4681V340.1617H340.1617V0H0V56.69362"/>
<path transform="matrix(1,0,0,-1.00003,13.910004,342.16578)" d="M-8.50412 0V55.8966" fill="#ffffff"/>
<path transform="matrix(1,0,0,-1.00003,13.910004,342.16578)" stroke-width=".79701" stroke-linecap="butt" stroke-miterlimit="10" stroke-linejoin="miter" fill="none" stroke="#000000" d="M-8.50412 0V55.8966"/>
<path transform="matrix(0,-1.00003,-1,-0,5.405884,285.869)" stroke-width=".79701" stroke-linecap="round" stroke-linejoin="round" fill="none" stroke="#000000" d="M-2.55046 3.11095C-2.0845 1.24435-1.04614 .36295 0 0-1.04614-.36295-2.0845-1.24435-2.55046-3.11095"/>
<path transform="matrix(1,0,0,-1.00003,13.910004,342.16578)" d="M48.18947 56.69362V112.59023" fill="#ffffff"/>
<path transform="matrix(1,0,0,-1.00003,13.910004,342.16578)" stroke-width=".79701" stroke-linecap="butt" stroke-miterlimit="10" stroke-linejoin="miter" fill="none" stroke="#000000" d="M48.18947 56.69362V112.59023"/>
<path transform="matrix(0,-1.00003,-1,-0,62.099473,229.17365)" stroke-width=".79701" stroke-linecap="round" stroke-linejoin="round" fill="none" stroke="#000000" d="M-2.55046 3.11095C-2.0845 1.24435-1.04614 .36295 0 0-1.04614-.36295-2.0845-1.24435-2.55046-3.11095"/>
<path transform="matrix(1,0,0,-1.00003,13.910004,342.16578)" d="M104.88309 113.38724V169.28385" fill="#ffffff"/>
<path transform="matrix(1,0,0,-1.00003,13.910004,342.16578)" stroke-width=".79701" stroke-linecap="butt" stroke-miterlimit="10" stroke-linejoin="miter" fill="none" stroke="#000000" d="M104.88309 113.38724V169.28385"/>
<path transform="matrix(0,-1.00003,-1,-0,118.79309,172.47834)" stroke-width=".79701" stroke-linecap="round" stroke-linejoin="round" fill="none" stroke="#000000" d="M-2.55046 3.11095C-2.0845 1.24435-1.04614 .36295 0 0-1.04614-.36295-2.0845-1.24435-2.55046-3.11095"/>
<path transform="matrix(1,0,0,-1.00003,13.910004,342.16578)" d="M161.5767 170.08086V225.97747" fill="#ffffff"/>
<path transform="matrix(1,0,0,-1.00003,13.910004,342.16578)" stroke-width=".79701" stroke-linecap="butt" stroke-miterlimit="10" stroke-linejoin="miter" fill="none" stroke="#000000" d="M161.5767 170.08086V225.97747"/>
<path transform="matrix(0,-1.00003,-1,-0,175.48671,115.783008)" stroke-width=".79701" stroke-linecap="round" stroke-linejoin="round" fill="none" stroke="#000000" d="M-2.55046 3.11095C-2.0845 1.24435-1.04614 .36295 0 0-1.04614-.36295-2.0845-1.24435-2.55046-3.11095"/>
<path transform="matrix(1,0,0,-1.00003,13.910004,342.16578)" d="M218.27034 226.77448V282.67109" fill="#ffffff"/>
<path transform="matrix(1,0,0,-1.00003,13.910004,342.16578)" stroke-width=".79701" stroke-linecap="butt" stroke-miterlimit="10" stroke-linejoin="miter" fill="none" stroke="#000000" d="M218.27034 226.77448V282.67109"/>
<path transform="matrix(0,-1.00003,-1,-0,232.18035,59.087678)" stroke-width=".79701" stroke-linecap="round" stroke-linejoin="round" fill="none" stroke="#000000" d="M-2.55046 3.11095C-2.0845 1.24435-1.04614 .36295 0 0-1.04614-.36295-2.0845-1.24435-2.55046-3.11095"/>
<path transform="matrix(1,0,0,-1.00003,13.910004,342.16578)" d="M274.96397 283.4681V339.3647" fill="#ffffff"/>
<path transform="matrix(1,0,0,-1.00003,13.910004,342.16578)" stroke-width=".79701" stroke-linecap="butt" stroke-miterlimit="10" stroke-linejoin="miter" fill="none" stroke="#000000" d="M274.96397 283.4681V339.3647"/>
<path transform="matrix(0,-1.00003,-1,-0,288.87397,2.3923646)" stroke-width=".79701" stroke-linecap="round" stroke-linejoin="round" fill="none" stroke="#000000" d="M-2.55046 3.11095C-2.0845 1.24435-1.04614 .36295 0 0-1.04614-.36295-2.0845-1.24435-2.55046-3.11095"/>
<path transform="matrix(1,0,0,-1.00003,13.910004,342.16578)" d="M0 51.02432H55.8966" fill="#ffffff"/>
<path transform="matrix(1,0,0,-1.00003,13.910004,342.16578)" stroke-width=".79701" stroke-linecap="butt" stroke-miterlimit="10" stroke-linejoin="miter" fill="none" stroke="#000000" d="M0 51.02432H55.8966"/>
<path transform="matrix(1,0,0,-1.00003,70.20511,291.13993)" stroke-width=".79701" stroke-linecap="round" stroke-linejoin="round" fill="none" stroke="#000000" d="M-2.55046 3.11095C-2.0845 1.24435-1.04614 .36295 0 0-1.04614-.36295-2.0845-1.24435-2.55046-3.11095"/>
<path transform="matrix(1,0,0,-1.00003,13.910004,342.16578)" d="M56.69362 107.71794H112.59023" fill="#ffffff"/>
<path transform="matrix(1,0,0,-1.00003,13.910004,342.16578)" stroke-width=".79701" stroke-linecap="butt" stroke-miterlimit="10" stroke-linejoin="miter" fill="none" stroke="#000000" d="M56.69362 107.71794H112.59023"/>
<path transform="matrix(1,0,0,-1.00003,126.89873,234.4446)" stroke-width=".79701" stroke-linecap="round" stroke-linejoin="round" fill="none" stroke="#000000" d="M-2.55046 3.11095C-2.0845 1.24435-1.04614 .36295 0 0-1.04614-.36295-2.0845-1.24435-2.55046-3.11095"/>
<path transform="matrix(1,0,0,-1.00003,13.910004,342.16578)" d="M113.38724 164.41156H169.28385" fill="#ffffff"/>
<path transform="matrix(1,0,0,-1.00003,13.910004,342.16578)" stroke-width=".79701" stroke-linecap="butt" stroke-miterlimit="10" stroke-linejoin="miter" fill="none" stroke="#000000" d="M113.38724 164.41156H169.28385"/>
<path transform="matrix(1,0,0,-1.00003,183.59235,177.74927)" stroke-width=".79701" stroke-linecap="round" stroke-linejoin="round" fill="none" stroke="#000000" d="M-2.55046 3.11095C-2.0845 1.24435-1.04614 .36295 0 0-1.04614-.36295-2.0845-1.24435-2.55046-3.11095"/>
<path transform="matrix(1,0,0,-1.00003,13.910004,342.16578)" d="M170.08086 221.10518H225.97747" fill="#ffffff"/>
<path transform="matrix(1,0,0,-1.00003,13.910004,342.16578)" stroke-width=".79701" stroke-linecap="butt" stroke-miterlimit="10" stroke-linejoin="miter" fill="none" stroke="#000000" d="M170.08086 221.10518H225.97747"/>
<path transform="matrix(1,0,0,-1.00003,240.28597,121.053958)" stroke-width=".79701" stroke-linecap="round" stroke-linejoin="round" fill="none" stroke="#000000" d="M-2.55046 3.11095C-2.0845 1.24435-1.04614 .36295 0 0-1.04614-.36295-2.0845-1.24435-2.55046-3.11095"/>
<path transform="matrix(1,0,0,-1.00003,13.910004,342.16578)" d="M226.77448 277.7988H282.67109" fill="#ffffff"/>
<path transform="matrix(1,0,0,-1.00003,13.910004,342.16578)" stroke-width=".79701" stroke-linecap="butt" stroke-miterlimit="10" stroke-linejoin="miter" fill="none" stroke="#000000" d="M226.77448 277.7988H282.67109"/>
<path transform="matrix(1,0,0,-1.00003,296.97959,64.35864)" stroke-width=".79701" stroke-linecap="round" stroke-linejoin="round" fill="none" stroke="#000000" d="M-2.55046 3.11095C-2.0845 1.24435-1.04614 .36295 0 0-1.04614-.36295-2.0845-1.24435-2.55046-3.11095"/>
<path transform="matrix(1,0,0,-1.00003,13.910004,342.16578)" d="M283.4681 334.49244H337.94728" fill="#ffffff"/>
<path transform="matrix(1,0,0,-1.00003,13.910004,342.16578)" stroke-width=".79701" stroke-linecap="butt" stroke-miterlimit="10" stroke-linejoin="miter" fill="none" stroke="#000000" d="M283.4681 334.49244H337.94728"/>
<path transform="matrix(1,0,0,-1.00003,352.2558,7.6632997)" stroke-width=".79701" stroke-linecap="round" stroke-linejoin="round" fill="none" stroke="#000000" d="M-2.55046 3.11095C-2.0845 1.24435-1.04614 .36295 0 0-1.04614-.36295-2.0845-1.24435-2.55046-3.11095"/>
<path transform="matrix(1,0,0,-1.00003,13.910004,342.16578)" d="M0-5.66927H339.3647" fill="#ffffff"/>
<path transform="matrix(1,0,0,-1.00003,13.910004,342.16578)" stroke-width=".79701" stroke-linecap="butt" stroke-miterlimit="10" stroke-linejoin="miter" fill="none" stroke="#000000" d="M0-5.66927H339.3647"/>
<path transform="matrix(1,0,0,-1.00003,353.67323,347.8352)" stroke-width=".79701" stroke-linecap="round" stroke-linejoin="round" fill="none" stroke="#000000" d="M-2.55046 3.11095C-2.0845 1.24435-1.04614 .36295 0 0-1.04614-.36295-2.0845-1.24435-2.55046-3.11095"/>
<path transform="matrix(1,0,0,-1.00003,13.910004,342.16578)" d="M345.831 0V339.3647" fill="#ffffff"/>
<path transform="matrix(1,0,0,-1.00003,13.910004,342.16578)" stroke-width=".79701" stroke-linecap="butt" stroke-miterlimit="10" stroke-linejoin="miter" fill="none" stroke="#000000" d="M345.831 0V339.3647"/>
<path transform="matrix(0,-1.00003,-1,-0,359.741,2.3923646)" stroke-width=".79701" stroke-linecap="round" stroke-linejoin="round" fill="none" stroke="#000000" d="M-2.55046 3.11095C-2.0845 1.24435-1.04614 .36295 0 0-1.04614-.36295-2.0845-1.24435-2.55046-3.11095"/>
<use data-text="h" xlink:href="#font_1_63" transform="matrix(9.9626,0,0,-9.962899,351.302,203.88463)"/>
</svg>
