<svg xmlns="http://www.w3.org/2000/svg" xmlns:xlink="http://www.w3.org/1999/xlink" xmlns:inkscape="http://www.inkscape.org/namespaces/inkscape" version="1.1" width="433" height="412" viewBox="0 0 433 412">
<defs>
<path id="font_1_116" d="M.58499148 0V.04699707H.5139923L.34599305 .2461853 .46299745 .37631227C.47599793 .39031983 .48199464 .3973236 .5649872 .3973236V.44433595L.47299195 .44132997 .36999513 .44433595V.3973236C.38398744 .3973236 .3959961 .3953247 .4079895 .38832093 .4039917 .38230897 .4039917 .38031007 .3999939 .37631227L.31599427 .2822113 .21798706 .3973236H.2579956V.44433595L.13699341 .44132997 .026992798 .44433595V.3973236H.09799194L.2539978 .21315003 .12298584 .06600952C.10598755 .04699707 .069992069 .04699707 .021987915 .04699707V0L.11399841 .0029907227 .21699524 0V.04699707C.19898987 .04699707 .17999268 .052001954 .17999268 .057998659 .17999268 .057998659 .17999268 .05999756 .18699646 .06800842L.28399659 .17712403 .3939972 .04699707H.35499574V0L.47499085 .0029907227 .58499148 0Z"/>
<path id="font_1_64" d="M.31799317 .17382813V.27082826H.0129852299V.17382813H.31799317Z"/>
<path id="font_1_28" d="M.5529938 .023986817C.5529938 .04699707 .5399933 .04699707 .5269928 .04699707 .46598817 .04798889 .46598817 .06100464 .46598817 .083999637V.29907228C.46598817 .3881073 .394989 .453125 .24598694 .453125 .18899536 .453125 .066986087 .44911195 .066986087 .36109925 .066986087 .3170929 .101989749 .29808045 .1289978 .29808045 .1599884 .29808045 .19198609 .3190918 .19198609 .36109925 .19198609 .39111329 .17298889 .40811158 .16999817 .41011048 .19799805 .41612245 .22999573 .41711427 .24198914 .41711427 .31698609 .41711427 .35198976 .3751068 .35198976 .29907228V.26506043C.2809906 .2620697 .026992798 .25306703 .026992798 .10801697 .026992798 .012130737 .15098572-.005859375 .21998596-.005859375 .2999878-.005859375 .34700013 .035125734 .36898805 .07713318 .36898805 .04598999 .36898805 0 .47299195 0H.5209961C.54100039 0 .5529938 0 .5529938 .023986817M.35198976 .13899231C.35198976 .043151857 .2599945 .030136109 .23498535 .030136109 .18399048 .030136109 .14399719 .06517029 .14399719 .10922241 .14399719 .21734619 .3019867 .23136902 .35198976 .234375V.13899231Z"/>
<path id="font_1_66" d="M.28599549 0V.04699707H.22399903V.4501953L.049987794 .4423828V.39537049C.10899353 .39537049 .115997318 .39537049 .115997318 .3563385V.04699707H.04699707V0L.16899109 .0029907227 .28599549 0M.23799134 .60728457C.23799134 .6502838 .20298767 .6852875 .1599884 .6852875 .116989139 .6852875 .08198547 .6502838 .08198547 .60728457 .08198547 .5642853 .116989139 .5292969 .1599884 .5292969 .20298767 .5292969 .23799134 .5642853 .23799134 .60728457Z"/>
<path id="font_1_98" d="M.4149933 .14012146C.4149933 .18312073 .394989 .21812439 .3600006 .24612427 .32099916 .27511598 .2889862 .28112794 .21099854 .29412843 .17399597 .30111695 .10899353 .31211854 .10899353 .3591156 .10899353 .42111207 .20199585 .42111207 .22099304 .42111207 .29599 .42111207 .33399964 .39212037 .33898927 .33711244 .33999635 .32211305 .34098817 .3171234 .3619995 .3171234 .38598634 .3171234 .38598634 .32211305 .38598634 .3451233V.42510987C.38598634 .4441223 .38598634 .453125 .36799623 .453125 .3639984 .453125 .3619995 .453125 .32299806 .43411256 .29699708 .44711305 .2619934 .453125 .22200012 .453125 .19198609 .453125 .037994386 .453125 .037994386 .32211305 .037994386 .28211976 .057998659 .25512696 .07798767 .23812866 .117996219 .203125 .1559906 .1971283 .23298645 .18312073 .2689972 .17712403 .34399415 .16412354 .34399415 .10513306 .34399415 .030136109 .2519989 .030136109 .22999573 .030136109 .12399292 .030136109 .09799194 .103134158 .085998538 .14613343 .08099365 .16012573 .07598877 .16012573 .06199646 .16012573 .037994386 .16012573 .037994386 .15412903 .037994386 .13113404V.022140503C.037994386 .0031280518 .037994386-.005859375 .055999757-.005859375 .06298828-.005859375 .06498718-.005859375 .085998538 .009140015L.11199951 .026138306C.1579895-.005859375 .20999146-.005859375 .22999573-.005859375 .26098634-.005859375 .4149933-.005859375 .4149933 .14013672V.14012146Z"/>
<path id="font_1_118" d="M.5799866 .3973236V.44433595C.55599978 .44232179 .526001 .44132997 .5009918 .44132997L.4099884 .44433595V.3973236C.4099884 .3973236 .45700074 .3973236 .45700074 .3853302L.45199586 .37332154 .33699037 .12713623 .20999146 .3973236H.2639923V.44433595L.13999939 .44132997 .025985718 .44433595V.3973236H.08999634L.2769928 .000045776369 .2539978-.04798889C.23199463-.09602356 .19999695-.1640625 .1289978-.1640625 .114990238-.1640625 .11299133-.16307068 .10499573-.1600647 .11399841-.1560669 .13699341-.14205933 .13699341-.10702515 .13699341-.07400513 .11299133-.049987794 .07899475-.049987794 .050994874-.049987794 .021987915-.069000247 .021987915-.10803223 .021987915-.15907288 .068984989-.20007324 .1289978-.20007324 .20599365-.20007324 .2639923-.13804627 .29100038-.08100891L.5059967 .37631227C.5130005 .39031983 .5159912 .3973236 .5799866 .3973236Z"/>
<path id="font_1_101" d="M.526001 .20495606C.526001 .34495545 .4249878 .41796876 .3039856 .41796876 .28199769 .41781617 .22599793 .41781617 .18399048 .34181214V.36080934C.18399048 .47483827 .20498657 .51797488 .21199036 .53302 .23599243 .5801544 .2899933 .616272 .35099793 .616272 .36898805 .616272 .40299989 .6132202 .42599488 .58984377 .3899994 .58483889 .37199403 .5578308 .37199403 .52783206 .37199403 .49383546 .394989 .46583558 .43399049 .46583558 .47299195 .46583558 .49699403 .49183656 .49699403 .52983096 .49699403 .59187319 .45498658 .65527346 .34899903 .65527346 .21299744 .65527346 .04798889 .5688324 .04798889 .3170166 .04798889 .23808289 .056991579 .15814209 .09799194 .08920288 .14498902 .013244629 .22099304-.0107421879 .29100038-.0107421879 .42999269-.0107421879 .526001 .07121277 .526001 .20510865V.20495606M.3899994 .20710755C.3899994 .10618591 .3899994 .03225708 .2889862 .03225708 .23699951 .03225708 .20999146 .07121277 .20199585 .08720398 .18598938 .11917114 .18598938 .19212342 .18598938 .21009827 .18598938 .33499146 .23999024 .381958 .29499818 .381958 .3899994 .381958 .3899994 .3070221 .3899994 .20710755Z"/>
<path id="font_1_56" d="M.5169983 .20121765C.5169983 .31617738 .43798829 .4091797 .2899933 .4091797 .26098634 .4091797 .20799256 .4061737 .16099549 .37417604V.5060425C.18899536 .5010376 .19999695 .4990387 .23399353 .4990387 .37998963 .4990387 .47200013 .6120453 .47200013 .637146 .47200013 .64419558 .46998597 .65527346 .45799256 .65527346 .45498658 .65527346 .45399476 .65527346 .44299317 .6512451 .38598634 .62908938 .33299256 .6230469 .2899933 .6230469 .21398926 .6230469 .16099549 .6421814 .1349945 .6512451 .12599182 .65426638 .125 .65527346 .12199402 .65527346 .10798645 .65527346 .10798645 .64419558 .10798645 .6280823V.33618165C.10798645 .31817628 .10798645 .30519105 .12998963 .30519105 .14299011 .30519105 .14498902 .30918885 .1519928 .31718446 .19099427 .36317445 .24499512 .37316896 .28599549 .37316896 .375 .37316896 .375 .28518678 .375 .20521546 .375 .13223267 .375 .03225708 .25498963 .03225708 .23098755 .03225708 .16799927 .037246705 .12599182 .09423828 .1619873 .09648132 .19099427 .1204834 .19099427 .16148377 .19099427 .21447754 .147995 .22949219 .12399292 .22949219 .10899353 .22949219 .056991579 .2204895 .056991579 .15948487 .056991579 .074417117 .1349945-.0107421879 .25898744-.0107421879 .4189911-.0107421879 .5169983 .079437259 .5169983 .20147705V.20121765Z"/>
<path id="font_1_57" d="M.5419922 0V.04699707H.44499208V.15611267H.5419922V.203125H.44499208V.62423709C.44499208 .6512451 .44299317 .65625 .4149933 .65625 .3939972 .65625 .3929901 .6552429 .3809967 .6402283L.03199768 .203125V.15611267H.31999208V.04699707H.20799256V0C.24598694 .0029907227 .33699037 .0029907227 .37998963 .0029907227 .41999818 .0029907227 .5069885 .0029907227 .5419922 0M.33099366 .203125H.083999637L.33099366 .51319888V.203125Z"/>
<path id="font_1_106" d="M.526001 .18013C.526001 .23513794 .49699403 .32113648 .35198976 .35212709 .42099 .3731537 .49398805 .4303589 .49398805 .5164032 .49398805 .5933533 .41799928 .65527346 .2769928 .65527346 .1579895 .65527346 .07998657 .59135439 .07998657 .5113983 .07998657 .46839906 .11099243 .44140626 .14898682 .44140626 .19400025 .44140626 .21899414 .47340394 .21899414 .51039126 .21899414 .56840518 .16499329 .5793915 .16099549 .58039858 .19599915 .6082916 .23999024 .616272 .2709961 .616272 .35398866 .616272 .35699464 .5523987 .35699464 .5193939 .35699464 .50639346 .35598756 .3751526 .2519989 .36914063 .21099854 .36712647 .20899964 .36613465 .20399475 .36512757 .19400025 .36413575 .19198609 .35412599 .19198609 .34812928 .19198609 .33013917 .20199585 .33013917 .21998596 .33013917H.2639923C.37298585 .33013917 .37298585 .23243714 .37298585 .18159485 .37298585 .13456726 .37298585 .03225708 .2689972 .03225708 .24299622 .03225708 .19099427 .03627014 .14299011 .06636047 .17599488 .07537842 .20098877 .10046387 .20098877 .14160156 .20098877 .18644715 .16899109 .217453 .125 .217453 .08299255 .217453 .04798889 .19044495 .04798889 .13945008 .04798889 .049346925 .14498902-.0107421879 .27398683-.0107421879 .45298768-.010406494 .526001 .08959961 .526001 .18058777V.18013Z"/>
<path id="font_1_107" d="M.5169983 .22200012H.46998597C.46699525 .20199585 .45799256 .13798523 .44400025 .1309967 .43299867 .125 .35798646 .125 .34199525 .125H.19499207C.24198914 .1639862 .2939911 .20698548 .33898927 .23999024 .45298768 .3242035 .5169983 .37124635 .5169983 .4663086 .5169983 .5812988 .41299439 .65527346 .27198792 .65527346 .15098572 .65527346 .056991579 .593277 .056991579 .50331118 .056991579 .44430543 .10499573 .42930604 .1289978 .42930604 .16099549 .42930604 .20098877 .4513092 .20098877 .50131228 .20098877 .55329897 .15899658 .5693054 .14399719 .5733032 .17298889 .5972748 .21099854 .6082611 .24699402 .6082611 .33299256 .6082611 .3789978 .54029849 .3789978 .4653015 .3789978 .39627076 .34098817 .3282013 .2709961 .25712586L.069992069 .051986696C.056991579 .039993287 .056991579 .037994386 .056991579 .017990113V0H.48599244L.5169983 .22200012Z"/>
<path id="font_1_82" d="M.49398805 0V.04699707H.35398866V.6231079C.35398866 .6452179 .35398866 .65527346 .32798768 .65527346 .31698609 .65527346 .31498719 .65527346 .30599977 .6482239 .22898865 .5909424 .12599182 .5909424 .10499573 .5909424H.084991458V.5439453H.10499573C.12098694 .5439453 .17599488 .54493716 .23498535 .5639343V.04699707H.09599304V0C.13999939 .0029907227 .24598694 .0029907227 .29499818 .0029907227 .34399415 .0029907227 .44999696 .0029907227 .49398805 0Z"/>
<path id="font_1_27" d="M.82699587 0V.04699707H.7299957L.47399903 .6722412C.46299745 .6982422 .45098878 .6982422 .43399049 .6982422 .4059906 .6982422 .4019928 .6902313 .394989 .6722412L.14698792 .07002258C.14099121 .055007936 .13798523 .04699707 .06199646 .04699707H.040985109V0L.1579895 .0029907227C.19699097 .0029907227 .25299073 .0029907227 .2899933 0V.04699707C.2899933 .04699707 .20098877 .04699707 .20098877 .060012819L.20498657 .07203674 .25498963 .19322205H.522995L.58299258 .04699707H.48799134V0C.526001 .0029907227 .62098696 .0029907227 .6639862 .0029907227 .70399478 .0029907227 .7919922 .0029907227 .82699587 0M.5029907 .24023438H.2749939L.3889923 .51823428 .5029907 .24023438Z"/>
<path id="font_1_85" d="M.38198854-.23503113C.38198854-.23002625 .3789978-.22503662 .3789978-.22503662 .34999085-.19802857 .2849884-.13702393 .24299622-.009033203 .21699524 .06997681 .20498657 .16197205 .20498657 .24998474 .20498657 .4469757 .2559967 .60398867 .3659973 .7149811 .3809967 .72998049 .38198854 .73098757 .38198854 .73599246 .38198854 .74697878 .37199403 .75 .3639984 .75 .34700013 .75 .30499269 .7129822 .2869873 .6959839 .1309967 .5409851 .10798645 .35697938 .10798645 .25097657 .10798645 .12597656 .14099121 .015975953 .18798828-.06703186 .2539978-.18203736 .34498597-.24902344 .3639984-.24902344 .37199403-.24902344 .38198854-.24603272 .38198854-.23503113Z"/>
<path id="font_1_45" d="M.25 .0309906C.25 .09899902 .21598816 .1559906 .1579895 .1559906 .11199951 .1559906 .08099365 .12098694 .08099365 .07798767 .08099365 .037994386 .10798645 0 .15899658 0 .19099427 0 .21099854 .016998291 .21398926 .019989014 .20599365-.089157108 .14099121-.14225769 .11999512-.16027832 .11399841-.16529846 .11099243-.16830445 .11099243-.1743164 .11099243-.18432617 .12199402-.19433594 .12998963-.19433594 .14498902-.19433594 .25-.10820007 .25 .0309906Z"/>
<path id="font_1_86" d="M.33799745 .24998474C.33799745 .37498475 .30499269 .48498536 .2579956 .5679779 .19198609 .6829834 .100997928 .75 .08198547 .75 .07398987 .75 .06399536 .74697878 .06399536 .73599246 .06399536 .73098757 .06399536 .72898867 .08099365 .7129822 .20698548 .5849762 .24099732 .40797425 .24099732 .25097657 .24099732 .053970338 .18998719-.103027347 .07998657-.21403504 .06498718-.22903443 .06399536-.23002625 .06399536-.23503113 .06399536-.24603272 .07398987-.24902344 .08198547-.24902344 .09899902-.24902344 .14099121-.21203614 .15899658-.19502259 .31498719-.040023805 .33799745 .14398194 .33799745 .24998474Z"/>
<path id="font_1_34" d="M.7529907 .18592835C.7529907 .28189088 .6669922 .3488617 .5479889 .35786439 .6559906 .37686158 .72099307 .43678285 .72099307 .51368716 .72099307 .60557559 .6339874 .6855469 .47299195 .6855469H.038986207V.63853457H.14698792V.04699707H.038986207V0H.5029907C.6689911 0 .7529907 .08796692 .7529907 .18592835M.57899478 .51368716C.57899478 .43678285 .5309906 .37486268 .43399049 .37486268H.27799989V.63853457H.45999146C.5609894 .63853457 .57899478 .55963137 .57899478 .51368716M.60598757 .18693543C.60598757 .17492676 .60598757 .04699707 .46199037 .04699707H.27799989V.3388672H.47200013C.49198915 .3388672 .5389862 .3388672 .57299807 .29588319 .60598757 .253891 .60598757 .19792176 .60598757 .18693543Z"/>
<path id="font_1_42" d="M.7659912 .22724915C.7659912 .24725342 .7589874 .2482605 .74198916 .2482605 .72898867 .2482605 .7200012 .2482605 .71899417 .23124695 .71199038 .09724426 .59098818 .036254884 .48999024 .036254884 .4119873 .036254884 .32798768 .060256959 .27598573 .12124634 .22898865 .17825318 .21699524 .25325013 .21699524 .34326173 .21699524 .39926148 .21998596 .5072632 .2829895 .57325747 .34799195 .63926699 .43499757 .6502533 .4869995 .6502533 .59498599 .6502533 .6899872 .5742645 .71199038 .44725038 .71499636 .42825318 .71598818 .42625428 .7389984 .42625428 .7649994 .42625428 .7659912 .42825318 .7659912 .45425416V.6692505C.7659912 .68826296 .7659912 .6972656 .7480011 .6972656 .7389984 .6972656 .7369995 .69525149 .72898867 .68826296L.6629944 .6292572C.6009979 .67926028 .5339966 .6972656 .46598817 .6972656 .21699524 .6972656 .06399536 .54826357 .06399536 .34326173 .06399536 .13824463 .21699524-.0107421879 .46598817-.0107421879 .6529999-.0107421879 .7659912 .11225891 .7659912 .22724915Z"/>
<path id="font_1_502" d="M.25299073 .5693207C.25299073 .6383209 .21598816 .69433596 .1579895 .69433596 .11199951 .69433596 .08099365 .6593323 .08099365 .616333 .08099365 .57632449 .10798645 .5383301 .15899658 .5383301 .18099976 .5383301 .20098877 .5463257 .21699524 .5613251 .21099854 .44906617 .14099121 .39389039 .11898804 .3768463 .114990238 .37384034 .11099243 .3708191 .11099243 .36380006 .11099243 .35377503 .12199402 .34375 .12998963 .34375 .14399719 .34375 .25299073 .42900086 .25299073 .5693207Z"/>
<path id="font_1_121" d="M.5289917 .31939698C.5289917 .41644288 .5279999 .65527346 .2869873 .65527346 .04598999 .65527346 .04499817 .41744996 .04499817 .31939698 .04499817 .22035218 .04598999-.0107421879 .2869873-.0107421879 .5269928-.0107421879 .5289917 .2193451 .5289917 .31939698M.40098573 .33140565C.40098573 .27537538 .40098573 .18432617 .3939972 .13230896 .37998963 .039260866 .31698609 .025253296 .2869873 .025253296 .25099183 .025253296 .19499207 .04725647 .18199158 .12030029 .17298889 .1723175 .17298889 .27638246 .17298889 .33140565 .17298889 .40344239 .17298889 .46847535 .18099976 .5205078 .19299317 .6092987 .2630005 .6192627 .2869873 .6192627 .32398988 .6192627 .36499024 .6003418 .38398744 .5565033 .40098573 .51950076 .40098573 .41345216 .40098573 .33140565Z"/>
</defs>
<path transform="matrix(1.00005,0,0,-1,200.53107,211.682)" stroke-width=".3985" stroke-linecap="butt" stroke-miterlimit="10" stroke-linejoin="miter" fill="none" stroke="#000000" d="M-198.42766 0H198.02916"/>
<path transform="matrix(1.00005,0,0,-1,398.76939,211.682)" stroke-width=".3985" stroke-linecap="round" stroke-linejoin="round" fill="none" stroke="#000000" d="M-2.07224 2.39104C-1.69365 .95639-.84999 .27895 0 0-.84999-.27895-1.69365-.95639-2.07224-2.39104"/>
<use data-text="x" xlink:href="#font_1_116" transform="matrix(9.963098,0,0,-9.9626,402.48817,215.06401)"/>
<use data-text="-" xlink:href="#font_1_64" transform="matrix(9.963098,0,0,-9.9626,408.53578,215.06401)"/>
<use data-text="a" xlink:href="#font_1_28" transform="matrix(9.963098,0,0,-9.9626,412.35163,215.06401)"/>
<use data-text="x" xlink:href="#font_1_116" transform="matrix(9.963098,0,0,-9.9626,417.921,215.06401)"/>
<use data-text="i" xlink:href="#font_1_66" transform="matrix(9.963098,0,0,-9.9626,423.9686,215.06401)"/>
<use data-text="s" xlink:href="#font_1_98" transform="matrix(9.963098,0,0,-9.9626,427.14683,215.06401)"/>
<path transform="matrix(1.00005,0,0,-1,200.53107,211.682)" stroke-width=".3985" stroke-linecap="butt" stroke-miterlimit="10" stroke-linejoin="miter" fill="none" stroke="#000000" d="M0-198.42766V198.02916"/>
<path transform="matrix(0,-1,-1.00005,-0,200.53107,13.453598)" stroke-width=".3985" stroke-linecap="round" stroke-linejoin="round" fill="none" stroke="#000000" d="M-2.07224 2.39104C-1.69365 .95639-.84999 .27895 0 0-.84999-.27895-1.69365-.95639-2.07224-2.39104"/>
<use data-text="y" xlink:href="#font_1_118" transform="matrix(9.963098,0,0,-9.9626,185.94034,7.7420046)"/>
<use data-text="-" xlink:href="#font_1_64" transform="matrix(9.963098,0,0,-9.9626,191.98795,7.7420046)"/>
<use data-text="a" xlink:href="#font_1_28" transform="matrix(9.963098,0,0,-9.9626,195.8038,7.7420046)"/>
<use data-text="x" xlink:href="#font_1_116" transform="matrix(9.963098,0,0,-9.9626,201.37317,7.7420046)"/>
<use data-text="i" xlink:href="#font_1_66" transform="matrix(9.963098,0,0,-9.9626,207.42078,7.7420046)"/>
<use data-text="s" xlink:href="#font_1_98" transform="matrix(9.963098,0,0,-9.9626,210.599,7.7420046)"/>
<path transform="matrix(1.00005,0,0,-1,200.53107,211.682)" stroke-width=".19925" stroke-linecap="butt" stroke-miterlimit="10" stroke-linejoin="miter" fill="none" stroke="#7f807f" d="M-198.42766-198.42766H198.42766M-198.42766-170.08086H198.42766M-198.42766-141.73404H198.42766M-198.42766-113.38724H198.42766M-198.42766-85.04042H198.42766M-198.42766-56.69362H198.42766M-198.42766-28.3468H198.42766M-198.42766 0H198.42766M-198.42766 28.3468H198.42766M-198.42766 56.69362H198.42766M-198.42766 85.04042H198.42766M-198.42766 113.38724H198.42766M-198.42766 141.73404H198.42766M-198.42766 170.08086H198.42766M-198.42766 198.41771H198.42766M-198.42766-198.42766V198.42766M-170.08086-198.42766V198.42766M-141.73404-198.42766V198.42766M-113.38724-198.42766V198.42766M-85.04042-198.42766V198.42766M-56.69362-198.42766V198.42766M-28.3468-198.42766V198.42766M0-198.42766V198.42766M28.3468-198.42766V198.42766M56.69362-198.42766V198.42766M85.04042-198.42766V198.42766M113.38724-198.42766V198.42766M141.73404-198.42766V198.42766M170.08086-198.42766V198.42766M198.41771-198.42766V198.42766M198.42766 198.42766"/>
<path transform="matrix(1.00005,0,0,-1,200.53107,211.682)" stroke-width=".79701" stroke-linecap="butt" stroke-miterlimit="10" stroke-linejoin="miter" fill="none" stroke="#000000" d="M-170.08086-2.83484V2.83484"/>
<use data-text="-" xlink:href="#font_1_64" transform="matrix(9.963098,0,0,-9.9626,25.669342,227.397)"/>
<use data-text="6" xlink:href="#font_1_101" transform="matrix(9.963098,0,0,-9.9626,29.485199,227.397)"/>
<path transform="matrix(1.00005,0,0,-1,200.53107,211.682)" stroke-width=".79701" stroke-linecap="butt" stroke-miterlimit="10" stroke-linejoin="miter" fill="none" stroke="#000000" d="M-141.73404-2.83484V2.83484"/>
<use data-text="-" xlink:href="#font_1_64" transform="matrix(9.963098,0,0,-9.9626,54.017747,227.397)"/>
<use data-text="5" xlink:href="#font_1_56" transform="matrix(9.963098,0,0,-9.9626,57.833604,227.397)"/>
<path transform="matrix(1.00005,0,0,-1,200.53107,211.682)" stroke-width=".79701" stroke-linecap="butt" stroke-miterlimit="10" stroke-linejoin="miter" fill="none" stroke="#000000" d="M-113.38724-2.83484V2.83484"/>
<use data-text="-" xlink:href="#font_1_64" transform="matrix(9.963098,0,0,-9.9626,82.366168,227.40702)"/>
<use data-text="4" xlink:href="#font_1_57" transform="matrix(9.963098,0,0,-9.9626,86.18202,227.40702)"/>
<path transform="matrix(1.00005,0,0,-1,200.53107,211.682)" stroke-width=".79701" stroke-linecap="butt" stroke-miterlimit="10" stroke-linejoin="miter" fill="none" stroke="#000000" d="M-85.04042-2.83484V2.83484"/>
<use data-text="-" xlink:href="#font_1_64" transform="matrix(9.963098,0,0,-9.9626,110.71358,227.397)"/>
<use data-text="3" xlink:href="#font_1_106" transform="matrix(9.963098,0,0,-9.9626,114.529438,227.397)"/>
<path transform="matrix(1.00005,0,0,-1,200.53107,211.682)" stroke-width=".79701" stroke-linecap="butt" stroke-miterlimit="10" stroke-linejoin="miter" fill="none" stroke="#000000" d="M-56.69362-2.83484V2.83484"/>
<use data-text="-" xlink:href="#font_1_64" transform="matrix(9.963098,0,0,-9.9626,139.062,227.397)"/>
<use data-text="2" xlink:href="#font_1_107" transform="matrix(9.963098,0,0,-9.9626,142.87786,227.397)"/>
<path transform="matrix(1.00005,0,0,-1,200.53107,211.682)" stroke-width=".79701" stroke-linecap="butt" stroke-miterlimit="10" stroke-linejoin="miter" fill="none" stroke="#000000" d="M-28.3468-2.83484V2.83484"/>
<use data-text="-" xlink:href="#font_1_64" transform="matrix(9.963098,0,0,-9.9626,167.41042,227.397)"/>
<use data-text="1" xlink:href="#font_1_82" transform="matrix(9.963098,0,0,-9.9626,171.22628,227.397)"/>
<path transform="matrix(1.00005,0,0,-1,200.53107,211.682)" stroke-width=".79701" stroke-linecap="butt" stroke-miterlimit="10" stroke-linejoin="miter" fill="none" stroke="#000000" d="M28.3468-2.83484V2.83484"/>
<use data-text="1" xlink:href="#font_1_82" transform="matrix(9.963098,0,0,-9.9626,226.01534,227.397)"/>
<path transform="matrix(1.00005,0,0,-1,200.53107,211.682)" stroke-width=".79701" stroke-linecap="butt" stroke-miterlimit="10" stroke-linejoin="miter" fill="none" stroke="#000000" d="M56.69362-2.83484V2.83484"/>
<use data-text="2" xlink:href="#font_1_107" transform="matrix(9.963098,0,0,-9.9626,254.36277,227.397)"/>
<path transform="matrix(1.00005,0,0,-1,200.53107,211.682)" stroke-width=".79701" stroke-linecap="butt" stroke-miterlimit="10" stroke-linejoin="miter" fill="none" stroke="#000000" d="M85.04042-2.83484V2.83484"/>
<use data-text="3" xlink:href="#font_1_106" transform="matrix(9.963098,0,0,-9.9626,282.71119,227.397)"/>
<path transform="matrix(1.00005,0,0,-1,200.53107,211.682)" stroke-width=".79701" stroke-linecap="butt" stroke-miterlimit="10" stroke-linejoin="miter" fill="none" stroke="#000000" d="M113.38724-2.83484V2.83484"/>
<use data-text="4" xlink:href="#font_1_57" transform="matrix(9.963098,0,0,-9.9626,311.0596,227.40702)"/>
<path transform="matrix(1.00005,0,0,-1,200.53107,211.682)" stroke-width=".79701" stroke-linecap="butt" stroke-miterlimit="10" stroke-linejoin="miter" fill="none" stroke="#000000" d="M141.73404-2.83484V2.83484"/>
<use data-text="5" xlink:href="#font_1_56" transform="matrix(9.963098,0,0,-9.9626,339.40803,227.397)"/>
<path transform="matrix(1.00005,0,0,-1,200.53107,211.682)" stroke-width=".79701" stroke-linecap="butt" stroke-miterlimit="10" stroke-linejoin="miter" fill="none" stroke="#000000" d="M170.08086-2.83484V2.83484"/>
<use data-text="6" xlink:href="#font_1_101" transform="matrix(9.963098,0,0,-9.9626,367.7564,227.397)"/>
<path transform="matrix(1.00005,0,0,-1,200.53107,211.682)" stroke-width=".79701" stroke-linecap="butt" stroke-miterlimit="10" stroke-linejoin="miter" fill="none" stroke="#000000" d="M-2.83484-170.08086H2.83484"/>
<use data-text="-" xlink:href="#font_1_64" transform="matrix(9.963098,0,0,-9.9626,181.79714,384.971)"/>
<use data-text="6" xlink:href="#font_1_101" transform="matrix(9.963098,0,0,-9.9626,185.61299,384.971)"/>
<path transform="matrix(1.00005,0,0,-1,200.53107,211.682)" stroke-width=".79701" stroke-linecap="butt" stroke-miterlimit="10" stroke-linejoin="miter" fill="none" stroke="#000000" d="M-2.83484-141.73404H2.83484"/>
<use data-text="-" xlink:href="#font_1_64" transform="matrix(9.963098,0,0,-9.9626,181.79714,356.62403)"/>
<use data-text="5" xlink:href="#font_1_56" transform="matrix(9.963098,0,0,-9.9626,185.61299,356.62403)"/>
<path transform="matrix(1.00005,0,0,-1,200.53107,211.682)" stroke-width=".79701" stroke-linecap="butt" stroke-miterlimit="10" stroke-linejoin="miter" fill="none" stroke="#000000" d="M-2.83484-113.38724H2.83484"/>
<use data-text="-" xlink:href="#font_1_64" transform="matrix(9.963098,0,0,-9.9626,181.79714,328.337)"/>
<use data-text="4" xlink:href="#font_1_57" transform="matrix(9.963098,0,0,-9.9626,185.61299,328.337)"/>
<path transform="matrix(1.00005,0,0,-1,200.53107,211.682)" stroke-width=".79701" stroke-linecap="butt" stroke-miterlimit="10" stroke-linejoin="miter" fill="none" stroke="#000000" d="M-2.83484-85.04042H2.83484"/>
<use data-text="-" xlink:href="#font_1_64" transform="matrix(9.963098,0,0,-9.9626,181.79714,299.93)"/>
<use data-text="3" xlink:href="#font_1_106" transform="matrix(9.963098,0,0,-9.9626,185.61299,299.93)"/>
<path transform="matrix(1.00005,0,0,-1,200.53107,211.682)" stroke-width=".79701" stroke-linecap="butt" stroke-miterlimit="10" stroke-linejoin="miter" fill="none" stroke="#000000" d="M-2.83484-56.69362H2.83484"/>
<use data-text="-" xlink:href="#font_1_64" transform="matrix(9.963098,0,0,-9.9626,181.79714,271.638)"/>
<use data-text="2" xlink:href="#font_1_107" transform="matrix(9.963098,0,0,-9.9626,185.61299,271.638)"/>
<path transform="matrix(1.00005,0,0,-1,200.53107,211.682)" stroke-width=".79701" stroke-linecap="butt" stroke-miterlimit="10" stroke-linejoin="miter" fill="none" stroke="#000000" d="M-2.83484-28.3468H2.83484"/>
<use data-text="-" xlink:href="#font_1_64" transform="matrix(9.963098,0,0,-9.9626,181.79714,243.292)"/>
<use data-text="1" xlink:href="#font_1_82" transform="matrix(9.963098,0,0,-9.9626,185.61299,243.292)"/>
<path transform="matrix(1.00005,0,0,-1,200.53107,211.682)" stroke-width=".79701" stroke-linecap="butt" stroke-miterlimit="10" stroke-linejoin="miter" fill="none" stroke="#000000" d="M-2.83484 28.3468H2.83484"/>
<use data-text="1" xlink:href="#font_1_82" transform="matrix(9.963098,0,0,-9.9626,185.61232,186.598)"/>
<path transform="matrix(1.00005,0,0,-1,200.53107,211.682)" stroke-width=".79701" stroke-linecap="butt" stroke-miterlimit="10" stroke-linejoin="miter" fill="none" stroke="#000000" d="M-2.83484 56.69362H2.83484"/>
<use data-text="2" xlink:href="#font_1_107" transform="matrix(9.963098,0,0,-9.9626,185.61232,158.251)"/>
<path transform="matrix(1.00005,0,0,-1,200.53107,211.682)" stroke-width=".79701" stroke-linecap="butt" stroke-miterlimit="10" stroke-linejoin="miter" fill="none" stroke="#000000" d="M-2.83484 85.04042H2.83484"/>
<use data-text="3" xlink:href="#font_1_106" transform="matrix(9.963098,0,0,-9.9626,185.61232,129.85)"/>
<path transform="matrix(1.00005,0,0,-1,200.53107,211.682)" stroke-width=".79701" stroke-linecap="butt" stroke-miterlimit="10" stroke-linejoin="miter" fill="none" stroke="#000000" d="M-2.83484 113.38724H2.83484"/>
<use data-text="4" xlink:href="#font_1_57" transform="matrix(9.963098,0,0,-9.9626,185.61232,101.563)"/>
<path transform="matrix(1.00005,0,0,-1,200.53107,211.682)" stroke-width=".79701" stroke-linecap="butt" stroke-miterlimit="10" stroke-linejoin="miter" fill="none" stroke="#000000" d="M-2.83484 141.73404H2.83484"/>
<use data-text="5" xlink:href="#font_1_56" transform="matrix(9.963098,0,0,-9.9626,185.61232,73.156009)"/>
<path transform="matrix(1.00005,0,0,-1,200.53107,211.682)" stroke-width=".79701" stroke-linecap="butt" stroke-miterlimit="10" stroke-linejoin="miter" fill="none" stroke="#000000" d="M-2.83484 170.08086H2.83484"/>
<use data-text="6" xlink:href="#font_1_101" transform="matrix(9.963098,0,0,-9.9626,185.61232,44.809007)"/>
<path transform="matrix(1.00005,0,0,-1,200.53107,211.682)" d="M-25.35797 28.3468C-25.35797 29.99751-26.69609 31.33563-28.3468 31.33563-29.99751 31.33563-31.33563 29.99751-31.33563 28.3468-31.33563 26.69609-29.99751 25.35797-28.3468 25.35797-26.69609 25.35797-25.35797 26.69609-25.35797 28.3468ZM-28.3468 28.3468" fill="#ff0000"/>
<use data-text="A" xlink:href="#font_1_27" transform="matrix(9.963098,0,0,-9.9626,154.17375,177.335)" fill="#ff0000"/>
<use data-text="(" xlink:href="#font_1_85" transform="matrix(9.963098,0,0,-9.9626,162.83168,177.335)" fill="#ff0000"/>
<use data-text="-" xlink:href="#font_1_64" transform="matrix(9.963098,0,0,-9.9626,167.28517,177.335)" fill="#ff0000"/>
<use data-text="1" xlink:href="#font_1_82" transform="matrix(9.963098,0,0,-9.9626,171.10103,177.335)" fill="#ff0000"/>
<use data-text="," xlink:href="#font_1_45" transform="matrix(9.963098,0,0,-9.9626,176.82982,177.335)" fill="#ff0000"/>
<use data-text="1" xlink:href="#font_1_82" transform="matrix(9.963098,0,0,-9.9626,180.00804,177.335)" fill="#ff0000"/>
<use data-text=")" xlink:href="#font_1_86" transform="matrix(9.963098,0,0,-9.9626,185.7368,177.335)" fill="#ff0000"/>
<path transform="matrix(1.00005,0,0,-1,200.53107,211.682)" d="M-110.3984 56.69362C-110.3984 58.34431-111.73653 59.68245-113.38724 59.68245-115.03793 59.68245-116.37607 58.34431-116.37607 56.69362-116.37607 55.04291-115.03793 53.70479-113.38724 53.70479-111.73653 53.70479-110.3984 55.04291-110.3984 56.69362ZM-113.38724 56.69362" fill="#ff0000"/>
<use data-text="B" xlink:href="#font_1_34" transform="matrix(9.963098,0,0,-9.9626,69.383518,148.988)" fill="#ff0000"/>
<use data-text="(" xlink:href="#font_1_85" transform="matrix(9.963098,0,0,-9.9626,77.533329,148.988)" fill="#ff0000"/>
<use data-text="-" xlink:href="#font_1_64" transform="matrix(9.963098,0,0,-9.9626,81.98682,148.988)" fill="#ff0000"/>
<use data-text="4" xlink:href="#font_1_57" transform="matrix(9.963098,0,0,-9.9626,85.802707,148.988)" fill="#ff0000"/>
<use data-text="," xlink:href="#font_1_45" transform="matrix(9.963098,0,0,-9.9626,91.53146,148.988)" fill="#ff0000"/>
<use data-text="2" xlink:href="#font_1_107" transform="matrix(9.963098,0,0,-9.9626,94.70969,148.988)" fill="#ff0000"/>
<use data-text=")" xlink:href="#font_1_86" transform="matrix(9.963098,0,0,-9.9626,100.43848,148.988)" fill="#ff0000"/>
<path transform="matrix(1.00005,0,0,-1,200.53107,211.682)" d="M-53.70479 113.38724C-53.70479 115.03793-55.04291 116.37607-56.69362 116.37607-58.34431 116.37607-59.68245 115.03793-59.68245 113.38724-59.68245 111.73653-58.34431 110.3984-56.69362 110.3984-55.04291 110.3984-53.70479 111.73653-53.70479 113.38724ZM-56.69362 113.38724" fill="#ff0000"/>
<use data-text="C" xlink:href="#font_1_42" transform="matrix(9.963098,0,0,-9.9626,126.01535,92.29401)" fill="#ff0000"/>
<use data-text="(" xlink:href="#font_1_85" transform="matrix(9.963098,0,0,-9.9626,134.29468,92.29401)" fill="#ff0000"/>
<use data-text="-" xlink:href="#font_1_64" transform="matrix(9.963098,0,0,-9.9626,138.7482,92.29401)" fill="#ff0000"/>
<use data-text="2" xlink:href="#font_1_107" transform="matrix(9.963098,0,0,-9.9626,142.56406,92.29401)" fill="#ff0000"/>
<use data-text="," xlink:href="#font_1_45" transform="matrix(9.963098,0,0,-9.9626,148.29282,92.29401)" fill="#ff0000"/>
<use data-text="4" xlink:href="#font_1_57" transform="matrix(9.963098,0,0,-9.9626,151.47104,92.29401)" fill="#ff0000"/>
<use data-text=")" xlink:href="#font_1_86" transform="matrix(9.963098,0,0,-9.9626,157.19983,92.29401)" fill="#ff0000"/>
<path transform="matrix(1.00005,0,0,-1,200.53107,211.682)" stroke-width=".79701" stroke-linecap="butt" stroke-miterlimit="10" stroke-linejoin="miter" fill="none" stroke="#ff0000" d="M-28.3468 28.3468-113.38724 56.69362-56.69362 113.38724Z"/>
<path transform="matrix(1.00005,0,0,-1,200.53107,211.682)" d="M-28.3468 28.3468-113.38724 56.69362-56.69362 113.38724Z" fill="#ff0000" fill-opacity=".4"/>
<path transform="matrix(1.00005,0,0,-1,200.53107,211.682)" d="M88.02925 85.04042C88.02925 86.69113 86.69113 88.02925 85.04042 88.02925 83.38971 88.02925 82.05159 86.69113 82.05159 85.04042 82.05159 83.38971 83.38971 82.05159 85.04042 82.05159 86.69113 82.05159 88.02925 83.38971 88.02925 85.04042ZM85.04042 85.04042" fill="#00ff00"/>
<use data-text="A" xlink:href="#font_1_27" transform="matrix(9.963098,0,0,-9.9626,267.8864,120.64101)" fill="#00ff00"/>
<use data-text="&#x2019;" xlink:href="#font_1_502" transform="matrix(9.963098,0,0,-9.9626,276.54438,120.64101)" fill="#00ff00"/>
<use data-text="(" xlink:href="#font_1_85" transform="matrix(9.963098,0,0,-9.9626,279.7226,120.64101)" fill="#00ff00"/>
<use data-text="3" xlink:href="#font_1_106" transform="matrix(9.963098,0,0,-9.9626,284.1761,120.64101)" fill="#00ff00"/>
<use data-text="," xlink:href="#font_1_45" transform="matrix(9.963098,0,0,-9.9626,289.90486,120.64101)" fill="#00ff00"/>
<use data-text="3" xlink:href="#font_1_106" transform="matrix(9.963098,0,0,-9.9626,293.08308,120.64101)" fill="#00ff00"/>
<use data-text=")" xlink:href="#font_1_86" transform="matrix(9.963098,0,0,-9.9626,298.81184,120.64101)" fill="#00ff00"/>
<path transform="matrix(1.00005,0,0,-1,200.53107,211.682)" d="M2.98883 113.38724C2.98883 115.03793 1.6507 116.37607 0 116.37607-1.6507 116.37607-2.98883 115.03793-2.98883 113.38724-2.98883 111.73653-1.6507 110.3984 0 110.3984 1.6507 110.3984 2.98883 111.73653 2.98883 113.38724ZM0 113.38724" fill="#00ff00"/>
<use data-text="B" xlink:href="#font_1_34" transform="matrix(9.963098,0,0,-9.9626,183.0952,92.29401)" fill="#00ff00"/>
<use data-text="&#x2019;" xlink:href="#font_1_502" transform="matrix(9.963098,0,0,-9.9626,191.24501,92.29401)" fill="#00ff00"/>
<use data-text="(" xlink:href="#font_1_85" transform="matrix(9.963098,0,0,-9.9626,194.42324,92.29401)" fill="#00ff00"/>
<use data-text="0" xlink:href="#font_1_121" transform="matrix(9.963098,0,0,-9.9626,198.87676,92.29401)" fill="#00ff00"/>
<use data-text="," xlink:href="#font_1_45" transform="matrix(9.963098,0,0,-9.9626,204.60552,92.29401)" fill="#00ff00"/>
<use data-text="4" xlink:href="#font_1_57" transform="matrix(9.963098,0,0,-9.9626,207.78374,92.29401)" fill="#00ff00"/>
<use data-text=")" xlink:href="#font_1_86" transform="matrix(9.963098,0,0,-9.9626,213.51253,92.29401)" fill="#00ff00"/>
<path transform="matrix(1.00005,0,0,-1,200.53107,211.682)" d="M59.68245 170.08086C59.68245 171.73155 58.34431 173.06969 56.69362 173.06969 55.04291 173.06969 53.70479 171.73155 53.70479 170.08086 53.70479 168.43015 55.04291 167.09203 56.69362 167.09203 58.34431 167.09203 59.68245 168.43015 59.68245 170.08086ZM56.69362 170.08086" fill="#00ff00"/>
<use data-text="C" xlink:href="#font_1_42" transform="matrix(9.963098,0,0,-9.9626,239.72702,35.601015)" fill="#00ff00"/>
<use data-text="&#x2019;" xlink:href="#font_1_502" transform="matrix(9.963098,0,0,-9.9626,248.00635,35.601015)" fill="#00ff00"/>
<use data-text="(" xlink:href="#font_1_85" transform="matrix(9.963098,0,0,-9.9626,251.1846,35.601015)" fill="#00ff00"/>
<use data-text="2" xlink:href="#font_1_107" transform="matrix(9.963098,0,0,-9.9626,255.63809,35.601015)" fill="#00ff00"/>
<use data-text="," xlink:href="#font_1_45" transform="matrix(9.963098,0,0,-9.9626,261.36686,35.601015)" fill="#00ff00"/>
<use data-text="6" xlink:href="#font_1_101" transform="matrix(9.963098,0,0,-9.9626,264.54508,35.601015)" fill="#00ff00"/>
<use data-text=")" xlink:href="#font_1_86" transform="matrix(9.963098,0,0,-9.9626,270.27388,35.601015)" fill="#00ff00"/>
<path transform="matrix(1.00005,0,0,-1,200.53107,211.682)" stroke-width=".79701" stroke-linecap="butt" stroke-miterlimit="10" stroke-linejoin="miter" fill="none" stroke="#00ff00" d="M85.04042 85.04042 0 113.38724 56.69362 170.08086Z"/>
<path transform="matrix(1.00005,0,0,-1,200.53107,211.682)" d="M85.04042 85.04042 0 113.38724 56.69362 170.08086Z" fill="#00ff00" fill-opacity=".4"/>
</svg>
