<svg xmlns="http://www.w3.org/2000/svg" xmlns:xlink="http://www.w3.org/1999/xlink" xmlns:inkscape="http://www.inkscape.org/namespaces/inkscape" version="1.1" width="167" height="111" viewBox="0 0 167 111">
<defs>
<path id="font_1_82" d="M.4099884 0V.0289917H.3789978C.29100038 .0289917 .28799439 .041000368 .28799439 .07701111V.6411133C.28799439 .664032 .28799439 .66503909 .2679901 .66503909 .24398804 .63812258 .19400025 .6012573 .09098816 .6012573V.5722656C.11399841 .5722656 .1639862 .5722656 .21899414 .59825137V.07701111C.21899414 .041000368 .21598816 .0289917 .12799073 .0289917H.09700012V0C.12399292 .0019989014 .22099304 .0019989014 .2539978 .0019989014 .2869873 .0019989014 .3829956 .0019989014 .4099884 0Z"/>
<path id="font_1_56" d="M.43998719 .2004242C.43998719 .3194275 .3600006 .4184265 .25498963 .4184265 .19799805 .4184265 .1539917 .39343263 .12799073 .36543275V.5722656C.17098999 .558609 .20599365 .5576172 .21699524 .5576172 .32998658 .5576172 .4019928 .6404724 .4019928 .65423586 .4019928 .65815737 .3999939 .66308596 .3939972 .66308596 .3939972 .6638031 .3899994 .6638031 .3809967 .6598053 .32499696 .6358032 .2769928 .6328125 .25099183 .6328125 .18499756 .6322632 .13798523 .6522522 .11898804 .66026309 .11199951 .66308596 .10899353 .66308596 .10899353 .66308596 .100997928 .66308596 .100997928 .65708926 .100997928 .6411133V.34443666C.100997928 .32644654 .100997928 .32044984 .11299133 .32044984 .117996219 .32044984 .11898804 .32144166 .1289978 .33345033 .15699768 .37443543 .20399475 .3984375 .2539978 .3984375 .30699159 .3984375 .33299256 .34944154 .34098817 .33244325 .35798646 .29345704 .35899354 .24446106 .35899354 .20648194 .35899354 .16848755 .35899354 .11149597 .33099366 .06651306 .30899049 .030426026 .269989 .005508423 .22599793 .005508423 .1599884 .005508423 .09498596 .050354005 .07699585 .12310791 .08198547 .12110901 .08799744 .12011719 .09298706 .12011719 .10998535 .12011719 .13699341 .1301117 .13699341 .16410828 .13699341 .19210816 .117996219 .20811463 .09298706 .20811463 .07499695 .20811463 .04899597 .19911194 .04899597 .16011048 .04899597 .07527161 .116989139-.021484375 .22799683-.021484375 .34098817-.021484375 .43998719 .073272708 .43998719 .20010376V.2004242Z"/>
<path id="font_1_75" d="M.79299929 0V.0289917C.7429962 .0289917 .71798709 .0289917 .71699526 .059051515V.24342346C.71699526 .3365631 .71699526 .36450196 .69400027 .39640809 .6649933 .4353943 .6179962 .44140626 .58399966 .44140626 .5009918 .44140626 .45899964 .38145448 .44299317 .3425598 .42900086 .41940309 .375 .44140626 .31199647 .44140626 .21499634 .44140626 .1769867 .35850526 .16899109 .338562H.16799927V.44140626L.03199768 .4303589V.4013672C.099990848 .4013672 .10798645 .39437867 .10798645 .34553529V.07408142C.10798645 .0289917 .09700012 .0289917 .03199768 .0289917V0C.057998659 .0019989014 .11199951 .0019989014 .13999939 .0019989014 .16899109 .0019989014 .22299195 .0019989014 .24899292 0V.0289917C.18499756 .0289917 .17298889 .0289917 .17298889 .07408142V.26046754C.17298889 .36547853 .24198914 .4213562 .3039856 .4213562 .3659973 .4213562 .37998963 .37045289 .37998963 .3095703V.07408142C.37998963 .0289917 .36898805 .0289917 .3039856 .0289917V0C.32998658 .0019989014 .38398744 .0019989014 .4119873 .0019989014 .44099427 .0019989014 .49499513 .0019989014 .5209961 0V.0289917C.45700074 .0289917 .44499208 .0289917 .44499208 .07408142V.26046754C.44499208 .36547853 .5139923 .4213562 .57598879 .4213562 .6380005 .4213562 .6519928 .37045289 .6519928 .3095703V.07408142C.6519928 .0289917 .6409912 .0289917 .57598879 .0289917V0C.60198977 .0019989014 .6559906 .0019989014 .6839905 .0019989014 .71299746 .0019989014 .7669983 .0019989014 .79299929 0Z"/>
<path id="font_1_107" d="M.43998719 .16799927H.41799928C.4149933 .15098572 .40699769 .09599304 .39698792 .07998657 .3899994 .070999149 .33299256 .070999149 .30299378 .070999149H.117996219C.14498902 .09399414 .20599365 .1579895 .23199463 .18199158 .38398744 .3217926 .43998719 .37374879 .43998719 .47270204 .43998719 .5878906 .34899903 .66503909 .23298645 .66503909 .116989139 .66503909 .04899597 .5658264 .04899597 .4797058 .04899597 .42871095 .09298706 .42871095 .09599304 .42871095 .116989139 .42871095 .14299011 .44371034 .14299011 .475708 .14299011 .5037079 .12399292 .5227051 .09599304 .5227051 .08699036 .5227051 .084991458 .5227051 .08198547 .521698 .100997928 .5899048 .15499878 .6360321 .21998596 .6360321 .30499269 .6360321 .35699464 .56481936 .35699464 .47270204 .35699464 .3877411 .30799867 .313797 .25099183 .24984741L.04899597 .023986817V0H.4139862L.43998719 .16799927Z"/>
<path id="font_1_121" d="M.44799806 .31976319C.44799806 .40283204 .44299317 .48388673 .40699769 .5599518 .3659973 .64302065 .2939911 .66503909 .24499512 .66503909 .18699646 .66503909 .115997318 .6360016 .07899475 .552948 .050994874 .48989869 .040985109 .42785646 .040985109 .31976319 .040985109 .22268677 .04798889 .14964295 .083999637 .07858276 .12298584 .002532959 .19198609-.021484375 .24398804-.021484375 .33099366-.021484375 .3809967 .030548096 .4099884 .08859253 .44599916 .16365052 .44799806 .26171876 .44799806 .31976319M.37199403 .33177186C.37199403 .26472474 .37199403 .18867493 .36099244 .12762451 .34199525 .017532349 .2789917-.0014801025 .24398804-.0014801025 .21199036-.0014801025 .14698792 .016540528 .12799073 .12562561 .116989139 .18566895 .116989139 .26171876 .116989139 .33177186 .116989139 .41383363 .116989139 .48789979 .1329956 .54693606 .1499939 .6139984 .20098877 .64501956 .24398804 .64501956 .28199769 .64501956 .33999635 .621994 .35899354 .53593447 .37199403 .47888185 .37199403 .39982606 .37199403 .33177186Z"/>
</defs>
<path transform="matrix(1.00008,0,0,-1.00006,51.559999,87.04326)" stroke-width=".79701" stroke-linecap="butt" stroke-miterlimit="10" stroke-linejoin="miter" fill="none" stroke="#000000" d="M0 0H113.38724L0 85.04042Z"/>
<use data-text="1" xlink:href="#font_1_82" transform="matrix(14.347347,0,0,-14.34706,.21688843,49.139986)"/>
<use data-text="5" xlink:href="#font_1_56" transform="matrix(14.347347,0,0,-14.34706,7.2470858,49.139986)"/>
<use data-text="m" xlink:href="#font_1_75" transform="matrix(14.347347,0,0,-14.34706,18.954514,49.139986)"/>
<use data-text="m" xlink:href="#font_1_75" transform="matrix(14.347347,0,0,-14.34706,30.661957,49.139986)"/>
<use data-text="2" xlink:href="#font_1_107" transform="matrix(14.347347,0,0,-14.34706,87.18185,108.60855)"/>
<use data-text="0" xlink:href="#font_1_121" transform="matrix(14.347347,0,0,-14.34706,94.21204,108.60855)"/>
<use data-text="m" xlink:href="#font_1_75" transform="matrix(14.347347,0,0,-14.34706,105.91947,108.60855)"/>
<use data-text="m" xlink:href="#font_1_75" transform="matrix(14.347347,0,0,-14.34706,117.626918,108.60855)"/>
<path transform="matrix(1.00008,0,0,-1.00006,51.559999,87.04326)" stroke-width=".3985" stroke-linecap="butt" stroke-miterlimit="10" stroke-linejoin="miter" fill="none" stroke="#000000" d="M0 0H8.50412V8.50412H0Z"/>
</svg>
